<svg width="299" height="299" viewBox="0 0 299 299" fill="none" xmlns="http://www.w3.org/2000/svg">
<path d="M92.3731 33.5657H31.6342V96.876H92.3731V33.5657Z" fill="#E0E0E0"/>
<path d="M88.2588 33.5657H27.52V96.876H88.2588V33.5657Z" fill="#FAFAFA"/>
<path d="M88.2768 96.876H27.508V33.5478H88.2768V96.876ZM27.5379 96.876H88.2409V33.5897H27.5379V96.876Z" fill="#E0E0E0"/>
<path d="M80.0902 42.0813H35.6827V88.3724H80.0902V42.0813Z" fill="#FAFAFA"/>
<path d="M35.6827 88.6774C35.3705 89.1445 35.0031 89.5722 34.5883 89.9511C33.8827 90.6986 32.884 91.7451 31.7658 92.8156C30.6475 93.886 29.6249 94.8966 28.8655 95.5903C28.4793 95.9952 28.0479 96.3543 27.5798 96.6607C27.9024 96.1946 28.2799 95.769 28.704 95.3929C29.4097 94.6454 30.4083 93.5989 31.5326 92.5225C32.6568 91.4461 33.6794 90.4355 34.4388 89.7418C34.8117 89.3409 35.229 88.9838 35.6827 88.6774Z" fill="#E0E0E0"/>
<path d="M80.0901 88.5638C80.5554 88.8783 80.9828 89.2456 81.3639 89.6581C82.1174 90.3698 83.128 91.3684 84.2283 92.4807C85.3286 93.593 86.3094 94.6275 87.003 95.387C87.4112 95.7678 87.7708 96.1976 88.0735 96.6667C87.6095 96.355 87.184 95.9897 86.8057 95.5783C86.0582 94.8667 85.0416 93.8681 83.9353 92.7498C82.829 91.6316 81.8543 90.597 81.1546 89.8435C80.7508 89.4602 80.3935 89.0307 80.0901 88.5638Z" fill="#E0E0E0"/>
<path d="M79.9705 42.2009C80.2851 41.7356 80.6523 41.3082 81.0649 40.9271C81.7765 40.1796 82.7751 39.169 83.8874 38.0687C84.9997 36.9684 86.0342 35.9876 86.7937 35.288C87.1755 34.8825 87.6052 34.5251 88.0734 34.2235C87.7618 34.6875 87.3965 35.113 86.9851 35.4913C86.2734 36.2388 85.2748 37.2554 84.1565 38.3557C83.0383 39.456 82.0037 40.4427 81.2502 41.1424C80.8681 41.5457 80.4384 41.9011 79.9705 42.2009Z" fill="#E0E0E0"/>
<path d="M35.5631 42.3145C35.096 42.0023 34.6683 41.6349 34.2893 41.2201C33.5418 40.5145 32.5312 39.5158 31.4309 38.3976C30.3306 37.2793 29.3499 36.2567 28.6502 35.4973C28.2453 35.1111 27.8861 34.6797 27.5798 34.2116C28.0442 34.5181 28.4716 34.8773 28.8535 35.282C29.601 35.9876 30.6475 36.9863 31.7179 38.1105C32.7884 39.2348 33.805 40.2574 34.4986 41.0168C34.9068 41.4027 35.2644 41.8387 35.5631 42.3145Z" fill="#E0E0E0"/>
<path d="M79.9705 88.3724C79.9705 88.3724 79.9705 88.2887 79.9705 88.1452C79.9705 88.0017 79.9705 87.7744 79.9705 87.4994C79.9705 86.9014 79.9705 86.0821 79.9705 84.9997C79.9705 82.8051 79.9705 79.6177 79.9227 75.5633C79.9227 67.4604 79.8749 55.907 79.833 42.0753L80.0064 42.2427H35.7544L35.9458 42.0454C35.9458 59.0346 35.9458 74.9354 35.9458 88.3366L35.7783 88.1631L67.8431 88.2528L76.849 88.2947H79.241H79.839H80.0543H79.8569H79.2589H76.9088L67.9388 88.3366L35.7664 88.4263H35.593V88.2588C35.593 74.8517 35.593 58.9568 35.593 41.9676V41.86H35.7903H80.0423H80.132V42.0334C80.0961 55.907 80.0662 67.4963 80.0423 75.6291C80.0423 79.6596 80.0064 82.8409 80.0004 85.0236C80.0004 86.094 80.0004 86.9193 80.0004 87.4874C80.0004 87.7565 80.0004 87.9658 80.0004 88.1153C79.9989 88.2018 79.9889 88.2879 79.9705 88.3724Z" fill="#E0E0E0"/>
<path d="M65.2956 57.8147H50.4772V72.6331H65.2956V57.8147Z" fill="#EBEBEB"/>
<path d="M239.038 34.6994L233.171 34.7311L233.329 63.931L239.196 63.8993L239.038 34.6994Z" fill="#E0E0E0"/>
<path d="M197.526 34.7806L182.331 34.8629L182.418 50.9847L197.613 50.9025L197.526 34.7806Z" fill="#EBEBEB"/>
<path d="M212.66 34.6988L197.459 34.781L197.547 50.9028L212.748 50.8206L212.66 34.6988Z" fill="#F5F5F5"/>
<path d="M182.354 39.3245C192.452 39.4082 202.561 39.3623 212.679 39.1869C212.721 39.1869 212.763 39.1699 212.793 39.1396C212.823 39.1094 212.84 39.0683 212.84 39.0255C212.84 38.9827 212.823 38.9416 212.793 38.9113C212.763 38.881 212.721 38.864 212.679 38.864C202.578 38.8102 192.448 38.864 182.354 39.0494C182.318 39.0494 182.283 39.0639 182.257 39.0897C182.231 39.1155 182.217 39.1505 182.217 39.1869C182.217 39.2234 182.231 39.2584 182.257 39.2842C182.283 39.31 182.318 39.3245 182.354 39.3245Z" fill="#E0E0E0"/>
<path d="M200.464 50.6355L172.855 50.7849L172.926 63.9227L200.535 63.7734L200.464 50.6355Z" fill="#EBEBEB"/>
<path d="M227.947 50.4868L200.338 50.6362L200.409 63.774L228.018 63.6247L227.947 50.4868Z" fill="#F5F5F5"/>
<path d="M172.876 54.4479C191.216 54.6572 209.623 54.4479 227.97 54.1728C228.012 54.1728 228.053 54.1558 228.084 54.1255C228.114 54.0953 228.131 54.0542 228.131 54.0114C228.131 53.9685 228.114 53.9275 228.084 53.8972C228.053 53.8669 228.012 53.8499 227.97 53.8499C209.629 53.7542 191.216 53.7662 172.876 54.1728C172.839 54.1728 172.804 54.1873 172.779 54.2131C172.753 54.2389 172.738 54.2739 172.738 54.3104C172.738 54.3468 172.753 54.3818 172.779 54.4076C172.804 54.4334 172.839 54.4479 172.876 54.4479Z" fill="#E0E0E0"/>
<path d="M269.525 63.9322H162.548V68.6384H269.525V63.9322Z" fill="#E0E0E0"/>
<path d="M184.405 66.1926H180.064V75.641H184.405V66.1926Z" fill="#E0E0E0"/>
<path d="M249.234 66.1926H244.893V75.641H249.234V66.1926Z" fill="#E0E0E0"/>
<path d="M244.767 23.8147L238.901 23.8464L239.118 64.0075L244.985 63.9758L244.767 23.8147Z" fill="#EBEBEB"/>
<path d="M253.939 31.2939L244.82 31.3432L244.996 63.8919L254.115 63.8425L253.939 31.2939Z" fill="#F5F5F5"/>
<path d="M253.875 37.5723C252.362 37.7338 250.839 37.7878 249.318 37.7338C247.795 37.7877 246.271 37.7337 244.755 37.5723C247.792 37.365 250.839 37.365 253.875 37.5723Z" fill="#E0E0E0"/>
<path d="M253.875 36.2089C252.361 36.3628 250.839 36.4148 249.318 36.3644C247.795 36.4146 246.271 36.3626 244.755 36.2089C247.791 35.9936 250.839 35.9936 253.875 36.2089Z" fill="#E0E0E0"/>
<path d="M253.875 58.9568C250.839 59.1641 247.792 59.1641 244.755 58.9568C247.791 58.7415 250.839 58.7415 253.875 58.9568Z" fill="#E0E0E0"/>
<path d="M253.875 57.5874C250.839 57.7947 247.792 57.7947 244.755 57.5874C247.792 57.3801 250.839 57.3801 253.875 57.5874Z" fill="#E0E0E0"/>
<path d="M249.468 54.6034C249.378 54.6034 249.306 51.3204 249.306 47.2719C249.306 43.2234 249.378 39.9344 249.468 39.9344C249.557 39.9344 249.623 43.2175 249.623 47.2719C249.623 51.3263 249.551 54.6034 249.468 54.6034Z" fill="#E0E0E0"/>
<path d="M263.903 39.2946H253.977V63.8604H263.903V39.2946Z" fill="#EBEBEB"/>
<path d="M243.434 30.6834C243.434 31.0169 243.335 31.3429 243.15 31.6203C242.964 31.8976 242.701 32.1137 242.393 32.2414C242.085 32.369 241.746 32.4024 241.418 32.3373C241.091 32.2723 240.791 32.1117 240.555 31.8758C240.319 31.64 240.159 31.3395 240.093 31.0124C240.028 30.6852 240.062 30.3462 240.189 30.038C240.317 29.7299 240.533 29.4665 240.811 29.2812C241.088 29.0959 241.414 28.997 241.747 28.997C242.195 28.997 242.624 29.1747 242.94 29.4909C243.256 29.8072 243.434 30.2361 243.434 30.6834Z" fill="#E0E0E0"/>
<path d="M242.268 35.3239H241.227V59.214H242.268V35.3239Z" fill="#E0E0E0"/>
<path d="M240.474 90.8362C241.676 89.781 243.013 88.8902 244.45 88.1871L244.576 83.7619L251.752 82.3446L253.546 86.3931C255.144 86.4959 256.72 86.8117 258.234 87.3319L261.452 84.2881L267.539 88.3724L265.943 92.5046C267 93.7051 267.891 95.0427 268.592 96.4813L273.023 96.6069L274.44 103.783L270.386 105.577C270.285 107.172 269.971 108.747 269.453 110.259L272.491 113.476L268.43 119.6L264.316 117.991C263.113 119.048 261.773 119.939 260.333 120.641L260.214 125.066L253.038 126.483L251.244 122.435C249.646 122.332 248.069 122.016 246.555 121.496L243.338 124.539L237.251 120.455L238.847 116.323C237.789 115.123 236.898 113.785 236.198 112.346L231.767 112.221L230.35 105.045L234.398 103.251C234.504 101.655 234.82 100.081 235.337 98.5683L232.299 95.3511L236.377 89.2635L240.51 90.8541L240.474 90.8362ZM246.041 99.7584C245.175 101.05 244.711 102.57 244.708 104.125C244.706 105.681 245.164 107.202 246.026 108.497C246.888 109.792 248.115 110.802 249.551 111.399C250.987 111.997 252.569 112.155 254.095 111.854C255.621 111.552 257.023 110.805 258.124 109.707C259.226 108.609 259.977 107.208 260.282 105.683C260.588 104.158 260.434 102.577 259.841 101.139C259.247 99.7008 258.241 98.4713 256.949 97.6056C255.217 96.4452 253.095 96.0201 251.049 96.4238C249.004 96.8275 247.202 98.0269 246.041 99.7584Z" fill="#333333"/>
<path d="M207.434 87.9718C208.11 87.5616 208.838 87.2458 209.599 87.0329L210.042 84.8921L213.659 84.8263L214.18 86.9492C214.947 87.1377 215.685 87.4294 216.374 87.8163L218.204 86.6203L220.812 89.1379L219.675 91.0036C220.084 91.6796 220.4 92.4078 220.614 93.1684L222.755 93.6169L222.821 97.2348L220.698 97.7551C220.505 98.5209 220.213 99.2586 219.831 99.9497L221.027 101.78L218.509 104.381L216.643 103.245C215.966 103.653 215.239 103.971 214.479 104.19L214.03 106.33L210.412 106.39L209.892 104.267C209.126 104.079 208.388 103.789 207.697 103.406L205.867 104.602L203.266 102.091L204.402 100.219C203.99 99.5436 203.672 98.8153 203.458 98.0541L201.317 97.6115L201.257 93.9936L203.38 93.4734C203.566 92.7062 203.856 91.9679 204.241 91.2787L203.045 89.4488L205.557 86.8416L207.428 87.9778L207.434 87.9718ZM209.36 92.7917C208.827 93.3439 208.47 94.0418 208.333 94.797C208.197 95.5523 208.287 96.331 208.594 97.0348C208.9 97.7386 209.408 98.3358 210.053 98.751C210.699 99.1661 211.453 99.3806 212.22 99.3672C212.987 99.3538 213.734 99.1132 214.364 98.6758C214.995 98.2384 215.482 97.6239 215.763 96.9099C216.045 96.1958 216.108 95.4144 215.945 94.6644C215.783 93.9143 215.401 93.2293 214.849 92.696C214.483 92.3416 214.05 92.063 213.576 91.8761C213.101 91.6891 212.595 91.5974 212.085 91.6063C211.575 91.6152 211.072 91.7245 210.604 91.9279C210.137 92.1312 209.714 92.4248 209.36 92.7917Z" fill="#455A64"/>
<path d="M209.36 92.7917C209.564 92.5417 209.809 92.3275 210.083 92.1578C210.834 91.6718 211.73 91.4605 212.619 91.5598C213.232 91.6209 213.822 91.8258 214.341 92.1578C214.935 92.5475 215.413 93.0883 215.728 93.7245C215.904 94.0661 216.023 94.4336 216.081 94.8129C216.147 95.2088 216.147 95.613 216.081 96.0089C215.972 96.8524 215.595 97.6385 215.005 98.2514C214.412 98.8593 213.641 99.2634 212.804 99.4055C212.408 99.4712 212.004 99.4712 211.608 99.4055C211.228 99.3586 210.857 99.2537 210.508 99.0946C209.859 98.8022 209.301 98.3393 208.893 97.7551C208.457 97.1382 208.21 96.4079 208.182 95.6531C208.153 94.8983 208.344 94.1515 208.732 93.5033C208.891 93.2263 209.093 92.976 209.33 92.7618C209.33 92.7618 209.097 93.0189 208.798 93.5511C208.383 94.3076 208.231 95.1807 208.367 96.0328C208.469 96.658 208.725 97.2479 209.113 97.7491C209.5 98.2503 210.006 98.647 210.586 98.9032C210.918 99.0535 211.27 99.1523 211.632 99.1962C212.006 99.2589 212.388 99.2589 212.762 99.1962C213.554 99.0625 214.282 98.6785 214.84 98.1005C215.397 97.5225 215.755 96.7811 215.86 95.985C215.92 95.6106 215.92 95.2291 215.86 94.8548C215.806 94.4954 215.697 94.1464 215.537 93.8202C215.303 93.3441 214.972 92.9217 214.566 92.5798C214.16 92.2379 213.687 91.9839 213.178 91.8339C212.669 91.6839 212.134 91.641 211.608 91.7081C211.081 91.7752 210.574 91.9507 210.119 92.2236C209.611 92.5465 209.384 92.8096 209.36 92.7917Z" fill="#455A64"/>
<path d="M207.434 87.9718L207.315 87.906L206.956 87.7027L205.545 86.8655H205.586L203.093 89.4787V89.413L204.289 91.207V91.2369V91.2727C203.908 91.9587 203.623 92.6929 203.44 93.4554V93.4973H203.398L201.275 94.0295L201.335 93.9458C201.359 95.086 201.382 96.292 201.406 97.5637L201.335 97.48L203.481 97.9225H203.535V97.9763C203.76 98.7474 204.09 99.4838 204.516 100.165L204.546 100.213L204.516 100.261L203.386 102.132V102.013L205.987 104.524H205.861L207.691 103.328L207.739 103.293L207.799 103.322C208.482 103.702 209.212 103.989 209.97 104.178H210.03V104.243L210.55 106.366L210.442 106.283L214.06 106.217L213.952 106.306C214.096 105.631 214.245 104.901 214.401 104.166V104.1H214.467C215.216 103.885 215.933 103.573 216.602 103.173H216.661H216.715L218.587 104.309H218.449L220.961 101.708V101.845L219.765 100.016L219.729 99.9557L219.759 99.9019C220.141 99.2203 220.429 98.4901 220.614 97.7311V97.6713H220.674L222.803 97.1511L222.719 97.2587C222.719 96.0209 222.677 94.8189 222.659 93.6408L222.743 93.7365L220.602 93.288H220.542V93.2342C220.331 92.4803 220.019 91.7582 219.615 91.0874V91.0395V90.9917L220.752 89.1259V89.2395L218.15 86.716H218.258L216.428 87.912H216.386H216.344C215.66 87.5299 214.928 87.2403 214.168 87.0509H214.126V87.009C213.94 86.2376 213.773 85.5439 213.618 84.8861L213.677 84.9339L210.059 84.9818L210.107 84.9399C209.928 85.7951 209.778 86.4947 209.653 87.0808C209.083 87.2396 208.53 87.4539 208.002 87.7206L207.614 87.9239L207.482 87.9897C207.52 87.959 207.56 87.931 207.602 87.906L207.984 87.6847C208.511 87.407 209.064 87.1826 209.635 87.015C209.754 86.417 209.892 85.7293 210.065 84.8741V84.8323H210.107L213.725 84.7545H213.779V84.8024C213.94 85.4602 214.114 86.1539 214.305 86.9253L214.251 86.8715C215.026 87.06 215.773 87.3516 216.47 87.7386H216.386L218.21 86.5426L218.27 86.5067L218.318 86.5545L220.925 89.0601L220.979 89.114L220.943 89.1797C220.572 89.7777 220.202 90.4056 219.813 91.0455V90.9498C220.225 91.6319 220.545 92.3659 220.764 93.1325L220.692 93.0667L222.833 93.5093H222.91V93.587C222.934 94.783 222.958 95.989 222.982 97.2049V97.2886H222.898L220.776 97.8089L220.853 97.7311C220.665 98.5088 220.371 99.2572 219.98 99.9557V99.866L221.176 101.69L221.224 101.768L221.164 101.827L218.653 104.435L218.587 104.495L218.515 104.453L216.643 103.316H216.757C216.075 103.733 215.338 104.053 214.568 104.267L214.646 104.184C214.497 104.919 214.341 105.649 214.204 106.324V106.414H214.114L210.496 106.474H210.406V106.39C210.227 105.655 210.047 104.931 209.886 104.261L209.964 104.339C209.189 104.148 208.443 103.854 207.745 103.466H207.853L206.023 104.662L205.951 104.71L205.891 104.65L203.296 102.138L203.236 102.079L203.278 102.013L204.414 100.147V100.243C203.972 99.57 203.623 98.8396 203.38 98.072L203.446 98.1378L201.305 97.6893H201.239V97.6175C201.239 96.3498 201.197 95.1358 201.179 93.9996V93.9338H201.245L203.368 93.4196L203.314 93.4734C203.507 92.7001 203.803 91.956 204.193 91.2608V91.3325L202.997 89.4967V89.4608L203.027 89.4249L205.556 86.8356L206.938 87.6967L207.291 87.918C207.34 87.9323 207.388 87.9503 207.434 87.9718Z" fill="#455A64"/>
<path d="M219.986 196.204L207.644 194.308L207.111 186.791C204.621 185.711 202.287 184.303 200.169 182.605L193.256 185.595L185.864 175.525L190.798 169.838C189.805 167.307 189.156 164.654 188.866 161.95L181.846 159.188L183.741 146.845L191.252 146.313C192.335 143.824 193.742 141.489 195.438 139.37L192.448 132.457L202.519 125.066L208.2 129.999C210.732 129.01 213.384 128.36 216.087 128.068L218.868 121.017L231.211 122.913L231.743 130.424C234.232 131.506 236.567 132.913 238.686 134.61L245.605 131.62L253.026 141.726L248.092 147.407C249.082 149.939 249.73 152.591 250.018 155.295L257.038 158.057L255.137 170.43L247.62 170.956C246.538 173.446 245.131 175.78 243.434 177.899L246.424 184.818L236.33 192.197L230.643 187.264C228.111 188.254 225.458 188.902 222.755 189.189L219.986 196.204ZM207.661 194.278L219.968 196.174L222.731 189.159C225.439 188.873 228.096 188.223 230.631 187.228L236.318 192.161L246.376 184.782L243.386 177.875C245.085 175.756 246.492 173.419 247.572 170.926L255.083 170.4L256.973 158.093L249.964 155.319C249.677 152.613 249.027 149.958 248.032 147.425L252.966 141.744L245.599 131.704L238.692 134.694C236.573 132.985 234.236 131.568 231.743 130.478L231.217 122.967L218.904 121.077L216.147 128.092C213.442 128.384 210.788 129.033 208.254 130.023L202.573 125.09L192.532 132.457L195.522 139.364C193.811 141.482 192.393 143.822 191.306 146.319L183.795 146.851L181.906 159.158L188.92 161.92C189.2 164.63 189.839 167.291 190.822 169.832L185.888 175.513L193.256 185.547L200.163 182.557C202.284 184.256 204.623 185.664 207.117 186.743L207.661 194.278ZM219.909 171.674C219.224 171.673 218.54 171.621 217.863 171.518C215.912 171.216 214.051 170.485 212.415 169.379C210.779 168.273 209.408 166.819 208.399 165.121C207.391 163.423 206.771 161.523 206.583 159.557C206.394 157.591 206.643 155.608 207.311 153.75C207.98 151.891 209.05 150.204 210.447 148.808C211.844 147.411 213.532 146.341 215.391 145.674C217.249 145.007 219.233 144.759 221.199 144.948C223.164 145.137 225.064 145.758 226.762 146.767C229.052 148.132 230.883 150.149 232.019 152.562C233.155 154.974 233.544 157.671 233.136 160.306C232.732 162.944 231.548 165.402 229.736 167.362C227.925 169.323 225.569 170.697 222.97 171.309C221.968 171.551 220.94 171.673 219.909 171.674ZM211.979 147.485C209.865 149.045 208.256 151.193 207.354 153.661C206.452 156.129 206.297 158.808 206.908 161.364C207.73 164.814 209.888 167.797 212.907 169.657C215.927 171.517 219.561 172.103 223.012 171.285C224.94 170.827 226.741 169.946 228.287 168.707C229.832 167.467 231.083 165.9 231.948 164.118C232.814 162.336 233.273 160.383 233.291 158.402C233.31 156.421 232.888 154.461 232.057 152.663C231.225 150.865 230.004 149.274 228.482 148.005C226.96 146.737 225.176 145.822 223.257 145.328C221.339 144.834 219.334 144.772 217.389 145.147C215.444 145.522 213.606 146.324 212.009 147.497L211.979 147.485Z" fill="#E0E0E0"/>
<path d="M211.979 147.485C212.818 146.755 213.771 146.169 214.802 145.751C217.2 144.741 219.839 144.444 222.402 144.897C224.965 145.35 227.342 146.533 229.249 148.304C231.047 149.973 232.365 152.094 233.064 154.445C233.842 157.051 233.821 159.829 233.005 162.423C232.141 165.222 230.4 167.67 228.038 169.403C225.677 171.137 222.82 172.065 219.891 172.051C218.508 172.059 217.134 171.847 215.818 171.423C214.551 171.038 213.35 170.459 212.26 169.706C210.227 168.336 208.6 166.444 207.548 164.229C206.638 162.304 206.195 160.192 206.256 158.063C206.332 154.985 207.468 152.028 209.473 149.691C210.184 148.834 211.031 148.099 211.979 147.515C212.039 147.586 211.034 148.244 209.707 149.907C207.85 152.239 206.827 155.125 206.8 158.105C206.775 160.289 207.297 162.444 208.32 164.374C209.343 166.303 210.833 167.946 212.655 169.15C214.8 170.576 217.32 171.334 219.897 171.327C222.662 171.332 225.357 170.452 227.587 168.816C229.816 167.179 231.463 164.872 232.287 162.231C232.694 160.989 232.896 159.688 232.885 158.38C232.903 157.126 232.731 155.876 232.377 154.673C231.724 152.429 230.486 150.4 228.789 148.794C227.313 147.393 225.529 146.359 223.58 145.774C220.73 144.905 217.672 145.014 214.891 146.085C213.898 146.503 212.926 146.97 211.979 147.485Z" fill="#263238"/>
<path d="M208.236 129.981C208.101 129.898 207.975 129.802 207.859 129.694L206.764 128.779L202.459 125.131H202.614L192.598 132.577L192.664 132.343L195.695 139.244L195.749 139.364L195.666 139.472C193.978 141.582 192.58 143.909 191.509 146.39L191.444 146.528H191.294L183.771 147.078L184.023 146.851C183.425 150.732 182.827 154.852 182.157 159.182L181.971 158.859L188.968 161.615L189.147 161.687V161.879C189.441 164.558 190.088 167.186 191.073 169.694L191.151 169.88L191.019 170.029L186.086 175.728V175.304L193.537 185.38L193.106 185.266L200.013 182.276L200.216 182.187L200.39 182.324C202.486 184.019 204.798 185.427 207.267 186.51L207.47 186.6V186.821C207.638 189.177 207.817 191.749 208.002 194.344L207.685 193.997L220.064 195.809L219.651 196.048C220.524 193.83 221.445 191.438 222.414 189.034L222.498 188.813H222.731C225.396 188.524 228.01 187.883 230.505 186.905L230.726 186.821L230.9 186.971L236.587 191.916H236.114L246.173 184.543L246.047 184.997L243.057 178.084L242.967 177.875L243.111 177.696C244.806 175.604 246.214 173.295 247.297 170.831L247.387 170.621H247.608L255.131 170.095L254.796 170.406C255.45 166.196 256.086 162.086 256.703 158.075L256.919 158.458L249.91 155.683L249.713 155.612V155.402C249.427 152.724 248.788 150.096 247.811 147.586L247.739 147.401L247.871 147.246L252.822 141.565V141.965L245.461 131.889L245.814 131.985L238.895 134.975L238.746 135.04L238.614 134.939C236.516 133.243 234.201 131.835 231.731 130.753L231.587 130.687V130.537C231.402 127.805 231.235 125.341 231.079 123.015L231.271 123.224L218.868 121.203L219.053 121.095C217.929 123.888 217.008 126.184 216.243 128.092L216.213 128.163H216.141C214.114 128.366 212.111 128.767 210.161 129.359L208.72 129.82C208.565 129.883 208.405 129.933 208.242 129.969C208.389 129.889 208.543 129.821 208.702 129.766C209.013 129.64 209.485 129.455 210.125 129.24C212.078 128.593 214.092 128.15 216.135 127.918L216.033 127.996C216.775 126.076 217.666 123.774 218.748 120.963L218.796 120.832H218.934L231.276 122.674H231.45V122.853C231.623 125.179 231.803 127.637 232.006 130.376L231.857 130.161C234.376 131.254 236.739 132.678 238.883 134.395L238.602 134.353L245.503 131.363L245.718 131.267L245.856 131.458L253.259 141.499L253.408 141.708L253.241 141.899L248.314 147.598L248.367 147.257C249.375 149.821 250.037 152.508 250.335 155.247L250.119 154.96L257.14 157.74L257.403 157.842L257.355 158.123C256.745 162.134 256.119 166.244 255.478 170.454L255.436 170.747H255.143L247.62 171.285L247.931 171.064C246.832 173.59 245.4 175.957 243.673 178.102L243.727 177.72C244.72 179.996 245.716 182.298 246.717 184.627L246.836 184.908L246.591 185.087L236.533 192.472L236.288 192.652L236.06 192.448C234.175 190.814 232.277 189.167 230.368 187.509L230.756 187.575C228.197 188.59 225.515 189.26 222.779 189.566L223.096 189.321C222.145 191.713 221.206 194.105 220.333 196.341L220.219 196.622L219.92 196.575L207.59 194.679L207.291 194.631V194.332C207.105 191.737 206.926 189.165 206.764 186.809L206.986 187.12C204.459 186.018 202.092 184.582 199.947 182.85L200.324 182.904L193.405 185.894L193.154 185.978L192.981 185.751C190.427 182.252 187.927 178.844 185.613 175.68L185.452 175.459L185.631 175.256L190.583 169.575L190.523 169.91C189.525 167.344 188.874 164.658 188.585 161.92L188.783 162.184L181.774 159.409L181.547 159.319L181.583 159.08C182.258 154.756 182.904 150.636 183.508 146.755L183.538 146.534H183.759L191.282 146.026L191.067 146.175C192.174 143.664 193.61 141.311 195.337 139.179L195.307 139.412L192.317 132.487L192.257 132.343L192.383 132.254L202.483 124.928L202.561 124.868L202.632 124.934L206.818 128.648L207.895 129.622C208.015 129.735 208.129 129.855 208.236 129.981Z" fill="#263238"/>
<path d="M268.843 219.125C269.657 215.128 270.02 211.052 269.925 206.974C269.848 202.931 268.962 198.835 266.84 195.402C264.474 199.126 263.398 203.524 263.778 207.919C264.053 212.154 265.776 216.165 268.657 219.281" fill="#333333"/>
<path d="M263.634 229.937C263.688 225.59 263.634 221.194 262.624 216.972C261.613 212.75 259.478 208.66 256.046 206.011C254.786 210.476 254.913 215.218 256.41 219.61C257.911 223.969 259.921 227.222 263.646 229.937" fill="#333333"/>
<path d="M257.044 242.788C257.642 238.901 258.109 234.966 257.69 231.061C257.272 227.156 255.896 223.251 253.103 220.465C251.443 224.312 250.991 228.572 251.806 232.682C252.631 236.754 254.036 239.912 257.044 242.788Z" fill="#333333"/>
<path d="M252.254 251.973C252.045 247.56 251.734 243.111 250.43 238.895C249.127 234.679 246.729 230.661 243.069 228.191C242.061 232.79 242.478 237.588 244.265 241.945C246.059 246.268 248.296 249.444 252.23 251.967" fill="#333333"/>
<path d="M245.126 262.809C245.264 258.761 245.324 254.67 244.45 250.717C243.577 246.765 241.694 242.914 238.536 240.378C237.275 244.509 237.298 248.926 238.602 253.044C239.912 257.134 241.718 260.22 245.126 262.809Z" fill="#333333"/>
<path d="M239.2 272.09C239.344 268.042 239.397 263.951 238.53 259.998C237.663 256.046 236.216 252.571 233.065 250.036C231.797 254.132 231.372 258.24 232.682 262.325C233.991 266.409 235.791 269.501 239.2 272.09Z" fill="#333333"/>
<path d="M263.652 229.817C266.386 227.978 269.326 226.467 272.413 225.314C274.828 224.358 277.344 223.68 279.912 223.293C282.495 222.908 285.133 223.261 287.524 224.31C284.513 227.451 280.65 229.646 276.41 230.624C272.169 231.602 267.736 231.322 263.652 229.817Z" fill="#333333"/>
<path d="M245.114 262.881C247.338 261.384 249.731 260.153 252.242 259.215C254.206 258.436 256.253 257.884 258.342 257.571C260.442 257.258 262.587 257.544 264.531 258.396C262.082 260.951 258.94 262.736 255.491 263.533C252.043 264.329 248.436 264.103 245.114 262.881Z" fill="#333333"/>
<path d="M240.468 270.242C242.86 269.309 246.071 267.384 248.619 267.061C250.705 266.738 252.822 266.654 254.927 266.81C257.046 266.975 259.075 267.733 260.782 268.998C257.821 270.934 254.363 271.973 250.825 271.988C247.309 271.988 243.41 272.156 240.468 270.236" fill="#333333"/>
<path d="M258.019 241.987C260.753 240.145 263.696 238.633 266.786 237.484C269.198 236.525 271.712 235.845 274.279 235.457C276.862 235.076 279.5 235.431 281.891 236.479C278.878 239.617 275.015 241.81 270.775 242.788C266.536 243.766 262.103 243.488 258.019 241.987Z" fill="#333333"/>
<path d="M250.436 255.095C252.917 252.924 255.645 251.053 258.563 249.521C260.835 248.268 263.242 247.279 265.739 246.573C268.252 245.865 270.914 245.882 273.418 246.621C270.826 250.117 267.271 252.781 263.188 254.287C259.105 255.792 254.671 256.073 250.43 255.095" fill="#333333"/>
<path d="M268.281 220.477C272.741 220.127 277.052 218.712 280.852 216.351C284.652 213.99 287.83 210.752 290.12 206.908C286.837 207.321 283.542 208.104 280.683 209.737C275.899 212.505 272.7 217.17 268.281 220.501" fill="#333333"/>
<path d="M273.286 210.311C276.556 208.743 279.134 206.026 280.528 202.678C281.921 199.33 282.032 195.586 280.839 192.161C277.952 194.169 275.704 196.966 274.365 200.217C273.025 203.469 272.651 207.037 273.286 210.496" fill="#333333"/>
<path d="M238.644 272.837C238.678 272.773 238.716 272.712 238.757 272.652C238.841 272.515 238.961 272.341 239.104 272.12C239.433 271.641 239.894 270.96 240.48 270.093C241.066 269.226 241.813 268.143 242.627 266.875C243.44 265.608 244.421 264.184 245.401 262.564C246.382 260.943 247.518 259.197 248.654 257.278C249.791 255.358 251.005 253.301 252.242 251.124C254.718 246.759 257.379 241.921 260.016 236.772C265.351 226.475 269.824 216.978 273.035 210.095L276.874 201.939C277.322 200.994 277.669 200.246 277.915 199.726C278.028 199.487 278.118 199.295 278.19 199.128C278.261 198.961 278.291 198.937 278.291 198.937C278.275 199.007 278.251 199.075 278.219 199.14C278.16 199.289 278.076 199.481 277.968 199.738L276.988 201.98C276.126 203.918 274.871 206.729 273.286 210.179C270.129 217.092 265.679 226.606 260.345 236.91C257.684 242.058 255.017 246.896 252.517 251.262C251.256 253.432 250.06 255.501 248.888 257.403C247.716 259.305 246.621 261.075 245.599 262.677C244.576 264.28 243.619 265.709 242.782 266.965C241.945 268.221 241.209 269.291 240.587 270.158L239.17 272.15L238.793 272.664C238.698 272.784 238.65 272.843 238.644 272.837Z" fill="#263238"/>
<path d="M32.4236 232.927C30.8569 229.434 29.6836 225.778 28.9253 222.025C28.0668 218.308 28.2154 214.43 29.3559 210.789C32.2903 213.71 34.1816 217.516 34.7379 221.619C35.3485 225.538 34.5971 229.548 32.609 232.981" fill="#333333"/>
<path d="M39.4321 241.753C38.4813 237.783 37.6381 233.752 37.674 229.668C37.7099 225.584 38.87 221.409 41.4474 218.27C43.5279 222.108 44.3894 226.488 43.9171 230.828C43.4447 235.128 42.2786 238.524 39.4321 241.783" fill="#333333"/>
<path d="M48.1211 252.171C46.7995 248.732 45.5318 245.228 45.1311 241.568C44.7304 237.908 45.1849 234.039 47.1404 230.918C49.4502 234.099 50.7371 237.907 50.83 241.837C50.9197 245.736 50.2799 248.918 48.1211 252.171Z" fill="#333333"/>
<path d="M54.418 259.574C53.7004 255.496 53.0666 251.351 53.3895 247.219C53.7124 243.087 55.0758 238.919 57.9163 235.899C59.7792 239.916 60.3757 244.404 59.6266 248.768C58.8791 253.092 57.4858 256.464 54.4001 259.586" fill="#333333"/>
<path d="M63.1727 268.024C62.204 264.346 61.307 260.608 61.289 256.811C61.2711 253.014 62.204 249.097 64.5661 246.125C66.5782 249.646 67.4709 253.697 67.1255 257.738C66.7727 261.745 65.7501 264.914 63.1727 268.024Z" fill="#333333"/>
<path d="M39.3903 241.646C36.502 240.523 33.4911 239.746 30.4203 239.332C28.0119 238.953 25.5682 238.85 23.1366 239.027C20.6934 239.21 18.3515 240.079 16.3792 241.532C19.7849 243.787 23.7745 244.998 27.8588 245.019C31.9431 245.039 35.9445 243.867 39.3723 241.646" fill="#333333"/>
<path d="M63.1967 268.083C60.8513 267.172 58.4064 266.542 55.913 266.206C53.9538 265.895 51.9653 265.811 49.9868 265.955C47.9988 266.1 46.093 266.807 44.4912 267.994C47.2622 269.827 50.5079 270.812 53.8306 270.828C57.1532 270.844 60.4082 269.89 63.1967 268.083Z" fill="#333333"/>
<path d="M47.0626 251.62C44.174 250.5 41.1631 249.725 38.0926 249.312C35.6863 248.933 33.2445 248.831 30.815 249.007C28.3723 249.189 26.0303 250.055 24.0576 251.507C27.4632 253.761 31.4529 254.973 35.5372 254.993C39.6215 255.014 43.6229 253.841 47.0507 251.62" fill="#333333"/>
<path d="M56.7084 262.056C53.9905 260.582 51.1081 259.433 48.1211 258.635C45.7817 257.968 43.3744 257.567 40.9451 257.439C38.4981 257.314 36.0652 257.879 33.9246 259.072C37.0215 261.733 40.8276 263.434 44.8767 263.965C48.9257 264.496 53.0417 263.835 56.7203 262.062" fill="#333333"/>
<path d="M33.2249 234.051C29.068 234.651 24.8279 234.245 20.8604 232.868C16.8928 231.49 13.3136 229.181 10.4232 226.134C13.5088 225.73 16.6439 225.948 19.6443 226.774C24.5958 228.316 28.4887 231.928 33.2249 234.051Z" fill="#333333"/>
<path d="M26.5572 225.769C23.2385 225.012 20.3153 223.059 18.347 220.282C16.3787 217.505 15.5035 214.099 15.8889 210.717C18.9412 211.959 21.5714 214.054 23.4653 216.75C25.3592 219.447 26.4367 222.632 26.5692 225.924" fill="#333333"/>
<path d="M65.2837 270.386C65.2315 270.351 65.1834 270.311 65.1401 270.266L64.7454 269.901L63.2564 268.502C62.6106 267.904 61.8212 267.115 60.9302 266.206C60.0392 265.297 59.0047 264.286 57.9402 263.12C53.4911 258.509 47.5589 251.937 41.3338 244.403C35.1086 236.868 29.6967 229.859 25.8276 224.758C23.8901 222.205 22.3413 220.13 21.2768 218.695L20.0808 217.032L19.7699 216.596C19.7306 216.549 19.6983 216.496 19.6742 216.44L19.7938 216.572L20.1287 216.99L21.3964 218.617C22.5027 220.052 24.0815 222.103 26.0309 224.597C29.9419 229.668 35.3717 236.653 41.5789 244.175C47.7862 251.698 53.7004 258.3 58.1017 262.947C59.19 264.143 60.2126 265.147 61.0917 266.062C61.9707 266.977 62.7422 267.754 63.376 268.388L64.8292 269.859L65.1999 270.242L65.2837 270.386Z" fill="#263238"/>
<path d="M241.365 272.838L248.941 192.616C249.088 191.12 248.923 189.61 248.457 188.18C247.992 186.751 247.236 185.433 246.237 184.31C245.238 183.187 244.017 182.282 242.652 181.653C241.287 181.025 239.806 180.685 238.303 180.656L153.931 178.981C151.153 178.925 148.457 179.932 146.396 181.795C144.334 183.659 143.062 186.24 142.838 189.01L136.374 272.802L241.365 272.838Z" fill="#455A64"/>
<path d="M229.393 272.82C229.417 272.728 229.433 272.633 229.441 272.539C229.441 272.335 229.494 272.06 229.536 271.701C229.614 270.954 229.734 269.877 229.877 268.496C230.158 265.697 230.565 261.673 231.073 256.703C232.048 246.723 233.393 232.969 234.876 217.774C236.007 205.933 237.059 194.972 237.908 186.05C237.908 185.603 237.896 185.161 237.872 184.722C237.88 184.284 237.834 183.846 237.735 183.419C237.509 182.587 237.02 181.851 236.342 181.32C235.696 180.818 234.91 180.53 234.093 180.494L231.874 180.452L224.477 180.339L219.747 180.279H218.509C218.228 180.279 218.085 180.279 218.085 180.279C218.085 180.279 218.228 180.279 218.509 180.309L219.747 180.357L224.477 180.488L231.868 180.668L234.081 180.728C234.866 180.764 235.62 181.051 236.231 181.546C236.842 182.041 237.279 182.718 237.478 183.478C237.572 183.888 237.614 184.308 237.603 184.728C237.603 185.159 237.603 185.595 237.633 186.038C236.766 194.96 235.696 205.921 234.542 217.762C233.094 232.957 231.785 246.717 230.84 256.697C230.379 261.673 230.009 265.667 229.752 268.502C229.632 269.883 229.542 270.966 229.476 271.713C229.447 272.072 229.429 272.347 229.411 272.55C229.399 272.64 229.393 272.73 229.393 272.82Z" fill="#263238"/>
<path d="M133.743 132.302C133.301 131.851 132.758 131.515 132.158 131.321H132.272C132.163 131.299 132.053 131.283 131.943 131.273C131.742 131.22 131.533 131.207 131.327 131.237C131.121 131.267 130.924 131.338 130.747 131.446C130.081 131.701 129.535 132.196 129.216 132.834C128.971 133.399 128.885 134.021 128.969 134.631C129.052 135.241 129.301 135.817 129.688 136.296C129.971 136.733 130.38 137.073 130.86 137.273C131.341 137.473 131.87 137.523 132.38 137.417C132.889 137.31 133.354 137.051 133.714 136.675C134.073 136.299 134.311 135.823 134.395 135.309C134.546 134.794 134.566 134.248 134.452 133.722C134.339 133.197 134.094 132.708 133.743 132.302Z" fill="#455A64"/>
<path d="M128.947 117.758C126.945 117.21 125.104 116.187 123.581 114.777C122.058 113.366 120.898 111.609 120.198 109.655C119.527 107.683 119.333 105.58 119.633 103.518C119.934 101.456 120.72 99.4955 121.926 97.7969C119.45 98.4308 116.987 96.1285 116.478 93.6109C115.97 91.0933 116.867 88.4861 117.824 86.0881C120.013 80.6164 122.751 75.1267 127.314 71.449C131.877 67.7713 138.676 66.372 143.604 69.5354C143.646 67.3886 146.163 66.3122 148.256 65.9474C157.382 64.4405 167.153 66.8325 174.341 72.7168C181.529 78.6011 185.924 87.9598 185.494 97.3125C188.591 102.168 186.606 109.548 181.505 112.155C182.411 117.786 181.356 123.558 178.515 128.504C175.657 133.404 171.183 137.156 165.861 139.119" fill="#333333"/>
<path d="M131.656 112.49C132.212 104.495 137.576 94.7232 145.535 95.6202L170.364 102.079C171.535 102.206 172.615 102.768 173.39 103.654C174.166 104.54 174.58 105.686 174.55 106.863L171.453 166.842L171.626 166.878C171.626 166.878 165.879 183.741 149.5 178.503C146.241 177.462 144.77 173.892 144.118 170.221H143.951C143.951 169.784 143.951 169.384 143.951 168.965C143.643 166.23 143.623 163.47 143.891 160.73C143.891 155.887 143.891 153.901 143.891 153.949C143.891 153.997 133.689 152.155 131.662 138.844C130.627 132.23 131.034 121.394 131.656 112.49Z" fill="#B78876"/>
<path d="M136.087 120.969C136.079 121.415 136.246 121.847 136.552 122.171C136.858 122.495 137.28 122.686 137.725 122.704C137.945 122.726 138.166 122.703 138.376 122.638C138.587 122.572 138.782 122.464 138.949 122.321C139.117 122.178 139.254 122.003 139.352 121.805C139.45 121.608 139.507 121.393 139.519 121.173C139.526 120.728 139.359 120.298 139.055 119.975C138.75 119.651 138.331 119.459 137.887 119.439C137.667 119.417 137.446 119.44 137.236 119.506C137.025 119.572 136.83 119.68 136.662 119.823C136.495 119.965 136.357 120.141 136.258 120.338C136.159 120.535 136.101 120.749 136.087 120.969Z" fill="#263238"/>
<path d="M133.952 118.153C134.161 118.38 135.465 117.429 137.307 117.447C139.149 117.465 140.482 118.392 140.685 118.171C140.781 118.069 140.572 117.668 139.986 117.238C139.196 116.679 138.251 116.38 137.283 116.383C136.325 116.373 135.389 116.668 134.61 117.226C134.06 117.651 133.868 118.057 133.952 118.153Z" fill="#263238"/>
<path d="M153.824 121.274C153.815 121.72 153.982 122.152 154.289 122.476C154.595 122.8 155.016 122.991 155.462 123.009C155.681 123.031 155.903 123.008 156.113 122.943C156.323 122.877 156.518 122.769 156.686 122.626C156.854 122.483 156.99 122.308 157.088 122.11C157.186 121.913 157.243 121.698 157.256 121.478C157.261 121.034 157.094 120.605 156.79 120.281C156.485 119.958 156.067 119.765 155.623 119.744C155.404 119.721 155.182 119.744 154.971 119.809C154.761 119.875 154.566 119.983 154.397 120.126C154.229 120.269 154.092 120.444 153.993 120.641C153.895 120.839 153.837 121.054 153.824 121.274Z" fill="#263238"/>
<path d="M152.041 118.619C152.257 118.847 153.56 117.896 155.396 117.914C157.232 117.932 158.578 118.858 158.775 118.637C158.877 118.536 158.661 118.135 158.075 117.704C157.285 117.145 156.34 116.846 155.372 116.849C154.416 116.84 153.482 117.135 152.705 117.692C152.137 118.117 151.94 118.524 152.041 118.619Z" fill="#263238"/>
<path d="M145.278 132.212C145.278 132.11 144.148 131.907 142.288 131.656C141.822 131.602 141.373 131.506 141.301 131.183C141.261 130.698 141.374 130.213 141.624 129.796C142.073 128.66 142.539 127.476 143.036 126.208C144.997 121.131 146.42 116.951 146.217 116.873C146.014 116.795 144.255 120.85 142.294 125.927C141.822 127.183 141.367 128.373 140.937 129.515C140.639 130.08 140.548 130.732 140.679 131.357C140.748 131.523 140.852 131.671 140.986 131.792C141.12 131.912 141.278 132 141.451 132.05C141.71 132.122 141.977 132.16 142.246 132.164C144.118 132.302 145.272 132.319 145.278 132.212Z" fill="#263238"/>
<path d="M143.861 153.967C150.134 154.106 156.322 152.499 161.735 149.327C161.735 149.327 157.346 158.452 144.016 157.101L143.861 153.967Z" fill="#AA6550"/>
<path d="M146.026 136.649C146.382 136.212 146.843 135.873 147.366 135.664C147.889 135.455 148.457 135.382 149.016 135.453C149.422 135.49 149.816 135.611 150.174 135.806C150.531 136.001 150.846 136.268 151.097 136.589C151.339 136.897 151.482 137.272 151.506 137.663C151.529 138.054 151.432 138.443 151.228 138.778C150.932 139.101 150.547 139.33 150.122 139.436C149.697 139.543 149.25 139.522 148.836 139.376C147.971 139.06 147.176 138.576 146.498 137.953C146.292 137.805 146.116 137.621 145.978 137.408C145.907 137.308 145.869 137.188 145.869 137.065C145.869 136.942 145.907 136.821 145.978 136.721" fill="#AA6550"/>
<path d="M150.696 133.521C150.397 133.521 150.379 135.501 148.657 136.906C146.935 138.311 144.818 138.102 144.8 138.353C144.77 138.479 145.272 138.748 146.169 138.778C147.338 138.802 148.477 138.412 149.386 137.678C150.263 136.975 150.829 135.958 150.965 134.843C151.037 134.006 150.816 133.509 150.696 133.521Z" fill="#263238"/>
<path d="M151.24 115.414C151.42 115.916 153.255 115.689 155.426 115.964C157.597 116.239 159.325 116.843 159.612 116.395C159.744 116.179 159.445 115.707 158.745 115.199C157.814 114.592 156.752 114.213 155.647 114.092C154.544 113.951 153.422 114.076 152.376 114.457C151.563 114.768 151.162 115.157 151.24 115.414Z" fill="#263238"/>
<path d="M134.682 112.837C135.004 113.255 136.272 112.837 137.797 112.837C139.322 112.837 140.608 113.136 140.907 112.699C141.038 112.49 140.841 112.071 140.309 111.671C139.563 111.176 138.679 110.932 137.785 110.971C136.889 110.977 136.017 111.264 135.291 111.79C134.723 112.203 134.55 112.633 134.682 112.837Z" fill="#263238"/>
<path d="M166.16 119.439C166.098 118.649 165.978 117.866 165.801 117.094C165.572 116.2 165.209 115.345 164.725 114.559C164.092 113.512 163.263 112.597 162.285 111.862C161.018 110.901 159.53 110.274 157.957 110.039C156.385 109.804 154.778 109.968 153.285 110.516C152.427 110.824 151.621 111.259 150.893 111.808C150.12 112.368 149.443 113.051 148.89 113.829C147.69 115.452 147.043 117.417 147.043 119.436C147.043 121.454 147.69 123.419 148.89 125.042C149.443 125.82 150.12 126.503 150.893 127.063C151.621 127.612 152.427 128.048 153.285 128.355C154.881 128.936 156.602 129.083 158.273 128.779C159.733 128.505 161.107 127.891 162.285 126.985C163.263 126.251 164.092 125.335 164.725 124.288C165.21 123.502 165.573 122.648 165.801 121.753C165.977 120.983 166.097 120.202 166.16 119.415C166.167 119.466 166.167 119.518 166.16 119.57C166.16 119.69 166.16 119.839 166.16 120.031C166.161 120.279 166.141 120.527 166.1 120.772C166.063 121.113 166.003 121.45 165.921 121.783C165.706 122.696 165.353 123.571 164.875 124.378C164.246 125.457 163.413 126.404 162.423 127.165C161.129 128.164 159.603 128.819 157.988 129.07C156.372 129.321 154.72 129.159 153.184 128.6C152.296 128.289 151.461 127.843 150.708 127.278C150.317 126.988 149.945 126.673 149.596 126.333C149.248 125.981 148.926 125.603 148.633 125.203C147.391 123.528 146.72 121.497 146.72 119.412C146.72 117.326 147.391 115.295 148.633 113.62C148.926 113.22 149.248 112.843 149.596 112.49C149.945 112.151 150.317 111.835 150.708 111.545C151.461 110.98 152.296 110.534 153.184 110.223C154.828 109.629 156.603 109.488 158.32 109.817C159.684 110.074 160.976 110.62 162.111 111.418C163.245 112.217 164.196 113.249 164.898 114.445C165.377 115.252 165.729 116.127 165.945 117.041C166.027 117.373 166.087 117.711 166.124 118.051C166.164 118.296 166.184 118.544 166.184 118.793C166.184 118.984 166.184 119.134 166.184 119.253C166.185 119.316 166.177 119.378 166.16 119.439Z" fill="#263238"/>
<path d="M181.445 112.855C181.418 112.796 181.4 112.733 181.391 112.669C181.355 112.532 181.314 112.352 181.266 112.125C181.218 111.898 181.152 111.581 181.056 111.234C180.961 110.887 180.847 110.481 180.728 110.038C179.953 107.504 178.832 105.089 177.397 102.862C175.267 99.5586 172.535 96.686 169.342 94.3943C165.405 91.6237 160.938 89.6957 156.222 88.7312C151.5 87.7521 146.646 87.5903 141.87 88.2528C137.969 88.7205 134.162 89.7791 130.579 91.3923C129.212 92.0248 127.898 92.7668 126.65 93.6109C125.712 94.2549 124.819 94.9622 123.977 95.7278L123.068 96.583L122.47 97.2587L122.088 97.6654C122.045 97.7163 121.997 97.7624 121.944 97.8029C121.978 97.7467 122.018 97.6945 122.064 97.6474L122.423 97.2169L123.021 96.5232L123.912 95.6381C124.744 94.853 125.632 94.1276 126.567 93.4674C127.816 92.6033 129.134 91.8433 130.508 91.195C134.104 89.5348 137.937 88.4454 141.87 87.9658C146.67 87.2849 151.552 87.4406 156.299 88.4263C161.056 89.402 165.558 91.3548 169.521 94.1611C172.736 96.4801 175.48 99.3904 177.606 102.736C179.037 104.986 180.135 107.432 180.865 109.996L181.17 111.192C181.26 111.545 181.302 111.85 181.349 112.095C181.397 112.34 181.421 112.508 181.445 112.645C181.456 112.715 181.456 112.785 181.445 112.855Z" fill="#263238"/>
<path d="M184.68 99.9976C184.662 99.9539 184.652 99.9073 184.65 99.86C184.65 99.7464 184.65 99.6148 184.597 99.4474C184.561 99.0886 184.477 98.5624 184.339 97.8866C183.934 95.9901 183.244 94.1656 182.294 92.4747C180.879 89.9681 179.045 87.7229 176.87 85.8369C174.193 83.5397 171.264 81.5536 168.14 79.9167C162.499 76.8612 156.632 74.2462 150.588 72.0949C148.268 71.2696 146.366 70.6597 145.051 70.253L143.52 69.7866L143.131 69.661C143.042 69.661 142.994 69.6132 143 69.6072C143.006 69.6012 143.048 69.6072 143.137 69.6072L143.538 69.7029C143.891 69.7926 144.411 69.9241 145.075 70.1155C146.402 70.4863 148.31 71.0603 150.648 71.8617C156.729 73.9626 162.625 76.5628 168.277 79.6357C171.422 81.2841 174.366 83.2907 177.05 85.6157C179.236 87.5319 181.071 89.8145 182.474 92.3611C183.417 94.0776 184.083 95.9324 184.447 97.8567C184.545 98.3786 184.613 98.9057 184.65 99.4354C184.65 99.6029 184.65 99.7404 184.65 99.8481C184.669 99.8957 184.679 99.9464 184.68 99.9976Z" fill="#263238"/>
<path d="M143.723 99.4175C143.723 99.4175 156.227 99.2321 165.694 113.345C171.931 122.65 173.247 134.329 173.247 134.329L178.072 112.101L174.484 101.935L165.843 97.0494L149.446 96.1285L143.257 99.1903" fill="#333333"/>
<path d="M168.223 100.572C148.31 95.7876 132.385 102.366 129.467 117.991L124.121 109.267L135.776 95.2375L147.138 92.2834L169.975 95.7577L168.223 100.572Z" fill="#333333"/>
<path d="M181.098 99.2202C181.074 99.1587 181.058 99.0944 181.05 99.0288C181.05 98.8853 180.997 98.6999 180.955 98.4667C180.914 98.1602 180.854 97.8566 180.775 97.5577C180.68 97.1989 180.602 96.7863 180.44 96.3617C180.09 95.2577 179.629 94.1919 179.065 93.1804C178.315 91.8447 177.41 90.6023 176.368 89.4787C175.108 88.1131 173.684 86.908 172.128 85.8907C170.338 84.7355 168.409 83.8112 166.387 83.1399C162.118 81.6868 157.119 81.1725 151.922 81.2802C146.725 81.3878 141.756 81.8782 137.385 83.0323C135.324 83.5664 133.321 84.3015 131.405 85.227C129.735 86.0397 128.159 87.0323 126.704 88.1871C124.575 89.8435 122.79 91.8991 121.448 94.2388C121.215 94.6574 121.011 95.0282 120.85 95.3631C120.688 95.6979 120.557 95.9611 120.467 96.2062C120.377 96.4514 120.306 96.6009 120.246 96.7385C120.186 96.876 120.168 96.9179 120.162 96.9119C120.451 95.9616 120.842 95.0453 121.328 94.179C122.642 91.7974 124.419 89.7031 126.555 88.0196C128.013 86.8498 129.598 85.8469 131.279 85.0296C133.209 84.0826 135.228 83.3295 137.307 82.7811C141.702 81.5851 146.695 81.1187 151.916 80.9871C157.136 80.8556 162.172 81.4057 166.477 82.8888C168.521 83.5718 170.468 84.5144 172.272 85.6934C173.838 86.7262 175.269 87.9517 176.53 89.3412C177.573 90.4835 178.476 91.7462 179.221 93.1026C179.776 94.1298 180.223 95.212 180.554 96.3318C180.68 96.7365 180.784 97.1477 180.865 97.5637C180.939 97.8664 180.989 98.1742 181.015 98.4846C181.044 98.7238 181.068 98.9092 181.086 99.0826C181.094 99.1281 181.098 99.1741 181.098 99.2202Z" fill="#263238"/>
<path d="M130.962 112.675C130.681 112.655 130.404 112.6 130.137 112.514C129.403 112.28 128.713 111.928 128.092 111.473C127.181 110.777 126.407 109.92 125.807 108.944C125.079 107.748 124.54 106.447 124.211 105.087C123.657 102.612 123.629 100.05 124.127 97.5637C124.273 96.811 124.491 96.074 124.779 95.3631C124.874 95.1119 124.976 94.9265 125.036 94.8009C125.096 94.6754 125.143 94.6096 125.149 94.6156C124.807 95.591 124.537 96.5904 124.342 97.6056C123.917 100.063 123.975 102.58 124.516 105.015C124.84 106.342 125.356 107.615 126.046 108.794C126.619 109.749 127.356 110.596 128.223 111.294C129.05 111.907 129.977 112.375 130.962 112.675Z" fill="#FAFAFA"/>
<path d="M173.097 100.051L172.965 100.01L172.595 99.8481L171.997 99.5849L171.16 99.268C169.378 98.6103 167.526 98.1647 165.64 97.9404C162.843 97.6055 160.015 97.6175 157.22 97.9763C155.641 98.1617 153.997 98.4607 152.299 98.8075C150.6 99.1544 148.86 99.5789 147.108 100.123C140.04 102.168 134.592 106.623 132.158 110.732C131.174 112.355 130.434 114.114 129.963 115.952C129.79 116.604 129.688 117.112 129.616 117.465C129.581 117.621 129.557 117.752 129.533 117.86C129.524 117.905 129.51 117.949 129.491 117.991C129.482 117.946 129.482 117.899 129.491 117.854C129.491 117.746 129.527 117.615 129.551 117.453C129.621 116.938 129.719 116.427 129.844 115.922C130.269 114.055 130.983 112.265 131.961 110.618C134.4 106.432 139.902 101.887 147.036 99.854C148.83 99.3098 150.552 98.8912 152.257 98.5384C153.961 98.1856 155.612 97.8986 157.202 97.7251C160.019 97.3666 162.871 97.3666 165.688 97.7251C167.584 97.9729 169.442 98.455 171.219 99.1604L172.051 99.5072L172.649 99.8002L173.007 99.9856C173.061 100.021 173.103 100.045 173.097 100.051Z" fill="#263238"/>
<path d="M147.036 100.081C147.181 100.065 147.328 100.065 147.473 100.081C147.886 100.112 148.297 100.166 148.705 100.243C150.207 100.531 151.665 101.018 153.04 101.69C156.532 103.346 160.892 106.689 164.366 111.479C165.975 113.746 167.385 116.147 168.582 118.655C169.6 120.675 170.5 122.751 171.279 124.874C171.811 126.302 172.237 127.767 172.553 129.258C172.655 129.79 172.726 130.203 172.756 130.484C172.784 130.626 172.798 130.77 172.798 130.914C172.748 130.779 172.714 130.639 172.696 130.496C172.649 130.215 172.559 129.808 172.433 129.3C172.072 127.826 171.618 126.376 171.076 124.958C170.269 122.858 169.351 120.801 168.325 118.799C167.126 116.322 165.726 113.948 164.139 111.7C161.227 107.618 157.402 104.272 152.968 101.929C151.615 101.247 150.183 100.735 148.705 100.404C148.178 100.297 147.772 100.219 147.509 100.183C147.348 100.165 147.19 100.131 147.036 100.081Z" fill="#263238"/>
<path d="M143.586 119.439C143.527 118.649 143.407 117.865 143.227 117.094C142.997 116.2 142.635 115.345 142.151 114.559C141.517 113.512 140.689 112.597 139.711 111.862C138.533 110.957 137.158 110.342 135.698 110.068C134.027 109.764 132.306 109.911 130.711 110.492C129.853 110.8 129.046 111.235 128.319 111.784C127.545 112.344 126.869 113.027 126.316 113.805C125.119 115.43 124.474 117.394 124.474 119.412C124.474 121.429 125.119 123.393 126.316 125.018C126.869 125.796 127.545 126.479 128.319 127.039C129.046 127.588 129.853 128.024 130.711 128.331C132.308 128.913 134.032 129.06 135.704 128.755C137.032 128.505 138.292 127.978 139.403 127.208C140.513 126.438 141.45 125.444 142.151 124.288C142.636 123.502 142.999 122.648 143.227 121.753C143.406 120.984 143.526 120.202 143.586 119.415C143.595 119.466 143.595 119.519 143.586 119.57C143.586 119.69 143.586 119.839 143.586 120.031C143.586 120.287 143.564 120.543 143.52 120.796C143.483 121.136 143.423 121.474 143.341 121.807C143.133 122.712 142.79 123.581 142.324 124.384C141.695 125.463 140.863 126.41 139.872 127.171C138.578 128.17 137.052 128.825 135.437 129.076C133.822 129.327 132.169 129.165 130.633 128.606C129.745 128.295 128.91 127.849 128.157 127.284C127.766 126.994 127.395 126.679 127.045 126.339C126.697 125.987 126.375 125.609 126.082 125.209C124.84 123.534 124.169 121.503 124.169 119.418C124.169 117.332 124.84 115.301 126.082 113.626C126.375 113.226 126.697 112.849 127.045 112.496C127.395 112.157 127.766 111.841 128.157 111.551C128.91 110.986 129.745 110.54 130.633 110.229C132.77 109.456 135.11 109.456 137.247 110.231C139.383 111.006 141.18 112.506 142.324 114.469C142.802 115.276 143.155 116.151 143.37 117.064C143.452 117.397 143.512 117.735 143.55 118.075C143.59 118.32 143.61 118.568 143.61 118.817C143.61 119.008 143.61 119.157 143.61 119.277C143.611 119.332 143.603 119.386 143.586 119.439Z" fill="#263238"/>
<path d="M173.653 131.56C173.221 131.11 172.685 130.774 172.092 130.579H172.212C172.102 130.553 171.99 130.535 171.877 130.525C171.676 130.472 171.466 130.46 171.26 130.49C171.055 130.521 170.857 130.594 170.681 130.705C170.018 130.962 169.475 131.457 169.156 132.092C168.91 132.657 168.824 133.279 168.907 133.89C168.99 134.5 169.24 135.076 169.629 135.555C169.911 135.992 170.319 136.334 170.799 136.534C171.279 136.735 171.809 136.785 172.318 136.678C172.827 136.571 173.292 136.312 173.651 135.935C174.01 135.559 174.247 135.082 174.329 134.568C174.479 134.05 174.496 133.503 174.378 132.977C174.26 132.451 174.011 131.964 173.653 131.56Z" fill="#455A64"/>
<path d="M135.794 106.558C135.583 106.483 135.382 106.382 135.196 106.259C134.972 106.135 134.756 105.998 134.55 105.846C134.269 105.661 133.997 105.461 133.737 105.248C133.049 104.706 132.408 104.106 131.823 103.454C131.108 102.649 130.468 101.78 129.909 100.859C129.367 99.9265 128.909 98.9479 128.54 97.9345C128.246 97.1055 128.022 96.2534 127.87 95.387C127.793 95.0222 127.769 94.6813 127.733 94.3883C127.697 94.1367 127.679 93.883 127.679 93.6289C127.655 93.4123 127.655 93.1936 127.679 92.977C127.739 92.977 127.775 93.898 128.074 95.369C128.255 96.2164 128.497 97.0498 128.797 97.8627C129.173 98.852 129.631 99.8082 130.167 100.721C130.715 101.626 131.337 102.484 132.026 103.287C132.594 103.94 133.207 104.551 133.862 105.116C135.028 106.037 135.824 106.504 135.794 106.558Z" fill="#FAFAFA"/>
<path d="M136.661 89.7359C136.709 89.7359 136.326 90.609 135.889 92.0442C135.316 93.9082 134.978 95.8369 134.885 97.785C134.795 99.7355 134.945 101.69 135.333 103.604C135.638 105.069 135.931 105.954 135.889 105.996C135.777 105.809 135.69 105.608 135.632 105.398C135.427 104.837 135.257 104.263 135.124 103.681C134.202 99.814 134.394 95.7644 135.68 92.0023C135.864 91.4202 136.085 90.8508 136.344 90.298C136.427 90.0987 136.533 89.91 136.661 89.7359Z" fill="#FAFAFA"/>
<path d="M150.206 98.4966C149.914 97.943 149.652 97.3741 149.422 96.7923C148.184 94.0542 146.543 91.5165 144.555 89.2635C144.119 88.8153 143.708 88.3442 143.323 87.8522C143.47 87.9363 143.605 88.041 143.723 88.1631C143.974 88.3724 144.321 88.6954 144.716 89.114C146.82 91.3109 148.486 93.8884 149.626 96.7086C149.841 97.2468 149.996 97.6893 150.092 98.0002C150.153 98.1596 150.191 98.3267 150.206 98.4966Z" fill="#FAFAFA"/>
<path d="M154.152 88.9764C154.342 89.3743 154.465 89.8005 154.517 90.2382C154.905 92.3233 154.835 94.4675 154.314 96.5232C154.23 96.9541 154.081 97.3695 153.871 97.7551C154.163 96.312 154.362 94.852 154.469 93.3837C154.456 91.9094 154.35 90.4374 154.152 88.9764Z" fill="#FAFAFA"/>
<path d="M160.862 91.2548C161.067 92.3672 161.017 93.5116 160.717 94.6022C160.417 95.6927 159.873 96.7011 159.128 97.5517C159.644 96.5797 160.076 95.5654 160.419 94.5199C160.659 93.446 160.807 92.3537 160.862 91.2548Z" fill="#FAFAFA"/>
<path d="M166.651 115.587C166.591 115.587 166.716 114.553 166.722 112.89C166.717 110.719 166.459 108.555 165.951 106.444C165.433 104.342 164.669 102.308 163.673 100.386C162.901 98.9152 162.321 98.06 162.363 98.0301C162.537 98.2102 162.687 98.4111 162.811 98.6281C163.195 99.1673 163.546 99.7284 163.864 100.309C164.928 102.222 165.733 104.27 166.256 106.396C166.774 108.522 167.003 110.709 166.938 112.896C166.922 113.557 166.87 114.215 166.782 114.87C166.762 115.113 166.718 115.353 166.651 115.587Z" fill="#455A64"/>
<path d="M178.999 105.553C179.048 105.825 179.07 106.102 179.065 106.378C179.065 106.647 179.065 106.976 179.065 107.359C179.065 107.742 179.065 108.172 178.999 108.651C178.91 109.771 178.744 110.884 178.503 111.981C177.902 114.671 176.866 117.245 175.435 119.6C174.847 120.558 174.198 121.477 173.492 122.351C173.199 122.728 172.894 123.044 172.643 123.326C172.391 123.607 172.158 123.846 171.967 124.031C171.786 124.233 171.585 124.418 171.369 124.581C171.525 124.353 171.703 124.14 171.901 123.947C172.08 123.75 172.302 123.505 172.535 123.212C172.768 122.919 173.061 122.614 173.342 122.213C174.022 121.331 174.647 120.409 175.214 119.451C175.895 118.273 176.494 117.05 177.008 115.791C177.508 114.523 177.92 113.222 178.24 111.898C178.494 110.814 178.682 109.716 178.802 108.609C178.868 108.136 178.88 107.706 178.91 107.329C178.94 106.952 178.957 106.629 178.957 106.36C178.948 106.09 178.962 105.82 178.999 105.553Z" fill="#FAFAFA"/>
<path d="M163.99 82.6316C164.074 83.046 164.074 83.4731 163.99 83.8874C163.83 84.896 163.471 85.8626 162.933 86.7304C162.395 87.5982 161.689 88.3496 160.856 88.9405C160.527 89.2126 160.147 89.416 159.738 89.5385C159.738 89.4967 160.132 89.2635 160.724 88.791C162.27 87.5442 163.346 85.8086 163.774 83.8695C163.825 83.4535 163.897 83.0403 163.99 82.6316Z" fill="#FAFAFA"/>
<path d="M175.645 88.9824C175.729 89.3919 175.719 89.8153 175.615 90.2203C175.435 91.2085 175.025 92.1405 174.419 92.9412C173.807 93.7438 173.011 94.3878 172.098 94.8189C171.732 95.026 171.323 95.1448 170.902 95.1657C170.902 95.1179 171.339 94.9803 171.991 94.6215C172.833 94.15 173.571 93.5134 174.161 92.7498C174.748 91.9843 175.174 91.1074 175.411 90.1724C175.579 89.4548 175.591 88.9824 175.645 88.9824Z" fill="#FAFAFA"/>
<path d="M179.831 94.1372C179.671 94.4962 179.442 94.8195 179.155 95.088C177.855 96.4944 176.066 97.3503 174.156 97.48C173.768 97.5347 173.373 97.5082 172.995 97.4022C174.29 97.3095 175.559 97.0003 176.751 96.4873C177.9 95.8799 178.941 95.0857 179.831 94.1372Z" fill="#FAFAFA"/>
<path d="M152.167 87.7326C151.564 86.8762 151.239 85.8556 151.234 84.8084C151.12 83.7739 151.329 82.7295 151.832 81.8184C151.621 82.801 151.517 83.8034 151.521 84.8084C151.635 85.8028 151.852 86.7827 152.167 87.7326Z" fill="#FAFAFA"/>
<path d="M150.343 88.205C150.343 88.2349 149.978 87.9598 149.524 87.4216C148.358 85.9935 147.649 84.2472 147.491 82.4104C147.432 82.0347 147.444 81.6513 147.527 81.2802C147.694 82.5319 147.993 83.7625 148.418 84.9519C148.941 86.1024 149.586 87.1931 150.343 88.205Z" fill="#455A64"/>
<path d="M139.824 82.6316C140.11 84.7015 139.652 86.8055 138.533 88.5698C138.443 88.5279 139.047 87.2901 139.4 85.6456C139.753 84.0011 139.729 82.6316 139.824 82.6316Z" fill="#FAFAFA"/>
<path d="M130.824 91.0575C130.824 91.0933 130.537 91.0036 130.155 90.7465C129.669 90.396 129.261 89.9479 128.959 89.4309C128.642 88.9176 128.438 88.3428 128.361 87.7445C128.313 87.2901 128.361 87.003 128.403 87.009C128.572 87.7971 128.846 88.5592 129.216 89.2754C129.669 89.9391 130.21 90.5386 130.824 91.0575Z" fill="#455A64"/>
<path d="M135.525 67.9747C135.567 68.0105 134.927 68.6923 134.125 69.978C133.104 71.651 132.457 73.5256 132.23 75.4727C132.003 77.4198 132.201 79.393 132.81 81.2562C133.276 82.6914 133.761 83.4987 133.707 83.5286C133.561 83.3605 133.438 83.1735 133.342 82.9725C133.052 82.4448 132.804 81.8949 132.6 81.328C131.922 79.4422 131.691 77.4244 131.925 75.434C132.16 73.4435 132.853 71.5348 133.952 69.8584C134.281 69.3541 134.649 68.8763 135.052 68.4291C135.333 68.1182 135.507 67.9567 135.525 67.9747Z" fill="#FAFAFA"/>
<path d="M123.475 74.7081C123.529 74.7081 123.343 75.4736 123.343 76.7055C123.335 78.3104 123.711 79.894 124.439 81.3243C125.168 82.7546 126.227 83.9902 127.529 84.928C128.528 85.6515 129.246 85.9386 129.222 85.9924C129.042 85.9635 128.868 85.9049 128.708 85.819C128.253 85.6209 127.816 85.3827 127.404 85.1074C126.026 84.1928 124.904 82.9413 124.145 81.4715C123.398 79.9908 123.037 78.345 123.098 76.6875C123.116 76.1923 123.18 75.6998 123.29 75.2164C123.322 75.0377 123.385 74.8658 123.475 74.7081Z" fill="#455A64"/>
<path d="M146.588 71.0544C146.68 71.1769 146.751 71.3145 146.797 71.461C146.964 71.8463 147.095 72.2468 147.186 72.657C147.503 73.9938 147.54 75.382 147.293 76.7336C147.046 78.0852 146.52 79.3707 145.751 80.5087C145.521 80.8542 145.259 81.1766 144.967 81.4715C144.764 81.6808 144.644 81.7885 144.626 81.7705C144.608 81.7526 145.027 81.2622 145.565 80.3891C146.978 78.0914 147.479 75.3478 146.97 72.6989C146.779 71.6763 146.51 71.0783 146.588 71.0544Z" fill="#FAFAFA"/>
<path d="M152.58 73.0397C152.736 73.458 152.809 73.9029 152.795 74.3493C152.862 76.5321 152.119 78.6626 150.708 80.3293C150.436 80.6859 150.102 80.9899 149.721 81.2263C149.974 80.8678 150.246 80.5225 150.534 80.1918C151.806 78.5063 152.519 76.4658 152.574 74.3553C152.592 73.554 152.532 73.0457 152.58 73.0397Z" fill="#455A64"/>
<path d="M162.237 76.4543C162.273 76.4543 162.453 76.6935 162.614 77.1659C162.818 77.7901 162.891 78.4497 162.829 79.1034C162.759 79.7596 162.556 80.3945 162.231 80.9692C161.98 81.4057 161.759 81.621 161.729 81.5672C162.103 80.7672 162.359 79.9171 162.489 79.0436C162.528 78.173 162.443 77.3012 162.237 76.4543Z" fill="#FAFAFA"/>
<path d="M172.475 83.0502C172.529 83.116 172.057 83.6004 171.279 83.9233C170.845 84.1727 170.34 84.2695 169.844 84.1984C170.262 83.9716 170.7 83.7854 171.154 83.6423C171.575 83.4051 172.018 83.207 172.475 83.0502Z" fill="#FAFAFA"/>
<path d="M178.527 87.8342C178.908 88.4702 179.064 89.2158 178.969 89.9512C178.981 90.6913 178.747 91.4144 178.306 92.0083C178.222 91.9664 178.605 91.0874 178.658 89.9332C178.712 88.7791 178.437 87.8641 178.527 87.8342Z" fill="#455A64"/>
<path d="M169.084 69.1707C169.084 69.1707 169.204 69.2843 169.348 69.5295C169.552 69.877 169.722 70.2435 169.856 70.6238C170.316 71.8872 170.44 73.2483 170.217 74.5742C169.994 75.9001 169.431 77.1454 168.582 78.1885C168.33 78.5043 168.048 78.7947 167.739 79.0556C167.524 79.241 167.392 79.3247 167.374 79.3068C167.356 79.2888 167.817 78.8642 168.409 78.0569C169.18 77.0142 169.695 75.8038 169.91 74.5246C170.125 73.2453 170.035 71.9334 169.647 70.6956C169.36 69.7388 169.037 69.1946 169.084 69.1707Z" fill="#455A64"/>
<path d="M176.745 75.4497C176.742 75.8957 176.644 76.336 176.458 76.7413C176.06 77.743 175.433 78.6369 174.625 79.3507C173.818 80.0644 172.854 80.5779 171.811 80.8496C171.387 80.9856 170.939 81.0305 170.496 80.9812C170.496 80.9273 170.992 80.8795 171.752 80.6403C172.736 80.3207 173.644 79.8015 174.419 79.1152C175.193 78.429 175.818 77.5903 176.254 76.6516C176.589 75.946 176.691 75.4377 176.745 75.4497Z" fill="#FAFAFA"/>
<path d="M182.39 82.6316C182.415 82.9274 182.361 83.2244 182.234 83.4928C181.986 84.1582 181.593 84.76 181.083 85.2544C180.573 85.7488 179.959 86.1235 179.286 86.3512C179.014 86.4651 178.719 86.5103 178.425 86.4828C179.319 86.1494 180.146 85.6571 180.865 85.0296C181.518 84.3322 182.035 83.5189 182.39 82.6316Z" fill="#455A64"/>
<path d="M128.163 170.37L142.976 161.819L172.074 158.948L172.266 163.212L164.408 222.659L170.807 272.82H124.181L128.163 170.37Z" fill="#263238"/>
<path d="M141.887 167.894L140.972 159.337C140.935 158.979 140.968 158.618 141.071 158.273C141.174 157.928 141.345 157.607 141.573 157.329C141.801 157.051 142.082 156.821 142.4 156.652C142.718 156.484 143.066 156.38 143.424 156.347L170.562 153.895C170.736 153.88 170.911 153.9 171.077 153.954C171.243 154.009 171.397 154.097 171.528 154.213C171.659 154.329 171.765 154.47 171.839 154.628C171.914 154.787 171.955 154.958 171.961 155.133L172.266 165.299L164.408 178.635L156.329 181.194H146.456L140.775 175.13L141.887 167.894Z" fill="#263238"/>
<path d="M168.259 162.058C167.897 162.044 167.535 162.008 167.177 161.95C166.193 161.857 165.203 161.839 164.217 161.897C162.754 161.997 161.301 162.206 159.869 162.524C158.249 162.865 156.491 163.344 154.625 163.798C152.87 164.252 151.083 164.57 149.279 164.749C147.797 164.886 146.303 164.785 144.853 164.45C143.876 164.216 142.941 163.829 142.085 163.302C141.857 163.154 141.637 162.995 141.427 162.823C141.283 162.704 141.212 162.632 141.224 162.626C141.236 162.62 141.547 162.841 142.157 163.188C143.019 163.662 143.946 164.008 144.907 164.217C146.336 164.514 147.803 164.589 149.255 164.438C151.038 164.244 152.805 163.92 154.541 163.469C156.401 163.015 158.171 162.542 159.809 162.219C161.257 161.911 162.727 161.723 164.205 161.657C165.204 161.619 166.205 161.673 167.195 161.819C167.548 161.879 167.793 161.926 167.996 161.974C168.086 161.994 168.174 162.022 168.259 162.058Z" fill="#455A64"/>
<g opacity="0.3">
<path d="M142.533 163.392C141.804 165.389 141.786 167.865 143.257 169.372C144.453 170.621 146.39 170.932 148.089 170.568C149.77 170.135 151.366 169.419 152.807 168.451C156.544 166.226 160.336 163.924 164.582 162.985C164.86 162.949 165.122 162.837 165.341 162.662C165.393 162.618 165.436 162.563 165.466 162.501C165.496 162.44 165.513 162.372 165.516 162.304C165.519 162.235 165.507 162.167 165.482 162.103C165.457 162.039 165.419 161.981 165.371 161.932C165.265 161.866 165.143 161.831 165.018 161.831C161.263 161.454 157.651 162.937 153.973 163.762C150.295 164.588 146.067 165.455 142.701 163.469" fill="black"/>
</g>
<path d="M147.706 156.078C147.321 156.286 146.998 156.594 146.773 156.969C146.349 157.657 146.402 158.823 146.402 160.085C146.474 162.62 146.893 164.641 146.791 164.665C146.606 164.249 146.483 163.808 146.426 163.356C146.216 162.281 146.096 161.191 146.067 160.097C146.041 159.498 146.053 158.899 146.103 158.303C146.14 157.791 146.3 157.297 146.57 156.861C146.756 156.567 147.021 156.33 147.335 156.18C147.574 156.078 147.706 156.078 147.706 156.078Z" fill="#455A64"/>
<path d="M154.882 163.511C154.774 163.511 155.02 161.633 154.685 159.373C154.35 157.113 153.62 155.378 153.722 155.336C153.967 155.67 154.155 156.042 154.278 156.437C154.633 157.369 154.882 158.338 155.02 159.325C155.165 160.315 155.196 161.318 155.109 162.315C155.101 162.724 155.025 163.128 154.882 163.511Z" fill="#455A64"/>
<path d="M163.625 154.619C163.867 154.915 164.042 155.26 164.139 155.63C164.733 157.391 164.604 159.316 163.78 160.982C163.641 161.339 163.419 161.658 163.134 161.915C163.674 160.784 164.02 159.571 164.157 158.327C164.312 156.234 163.517 154.655 163.625 154.619Z" fill="#455A64"/>
<path d="M108.328 243.619C108.328 243.619 114.906 195.181 116.825 186.397C117.548 183.101 118.926 179.984 120.878 177.232C122.83 174.48 125.316 172.148 128.187 170.376L130.011 258.139L121.992 268.233L113.022 271.665C110.968 272.455 108.701 272.491 106.623 271.767L98.0301 268.777L97.3005 252.404L104.56 250.305L108.328 243.619Z" fill="#263238"/>
<path d="M197.723 169.545C201.014 170.826 203.941 172.895 206.245 175.572C208.55 178.249 210.161 181.45 210.939 184.896C216.069 207.506 224.848 237.591 224.986 247.297C225.159 259.658 219.753 268.119 212.697 269.68C208.66 270.571 181.206 270.123 166.298 269.806C163.636 269.747 161.084 268.733 159.108 266.949C157.132 265.165 155.863 262.73 155.534 260.088C155.17 257.206 155.95 254.296 157.708 251.982C159.465 249.669 162.06 248.137 164.934 247.716L195.139 243.272L189.53 211.931L195.08 168.522L197.723 169.545Z" fill="#263238"/>
<path d="M171.488 159.845L183.586 164.791L195.092 168.522L195.367 202.949L188.52 272.73L164.51 272.82L164.558 241.676C163.665 226.663 164.646 211.597 167.476 196.826L171.13 167.219" fill="#263238"/>
<path d="M189.189 208.762C189.233 208.873 189.263 208.99 189.279 209.109C189.333 209.378 189.399 209.707 189.476 210.113C189.644 211.034 189.877 212.29 190.152 213.815C190.708 216.99 191.456 221.296 192.287 226.05C193.118 230.804 193.794 235.122 194.326 238.297C194.565 239.834 194.763 241.09 194.924 242.017C194.984 242.429 195.032 242.764 195.068 243.033C195.085 243.152 195.085 243.273 195.068 243.392C195.024 243.28 194.994 243.164 194.978 243.045C194.918 242.776 194.852 242.447 194.769 242.041C194.601 241.12 194.368 239.87 194.081 238.339C193.519 235.211 192.759 230.888 191.946 226.104C191.133 221.32 190.409 216.996 189.913 213.857C189.674 212.32 189.482 211.064 189.315 210.137C189.261 209.725 189.219 209.39 189.183 209.121C189.168 209.001 189.17 208.88 189.189 208.762Z" fill="#263238"/>
<path d="M200.521 174.437C200.222 174.574 199.912 174.688 199.594 174.777C198.755 175.084 197.934 175.439 197.137 175.842C194.514 177.191 192.24 179.129 190.493 181.505C189.994 182.174 189.556 182.887 189.183 183.634C188.861 184.34 188.599 185.072 188.4 185.823C188.061 187.103 187.841 188.412 187.742 189.733C187.64 190.858 187.622 191.779 187.616 192.412C187.638 192.741 187.638 193.071 187.616 193.399C187.543 193.075 187.507 192.744 187.509 192.412C187.459 191.514 187.459 190.614 187.509 189.715C187.576 188.375 187.776 187.045 188.107 185.745C188.303 184.971 188.567 184.217 188.896 183.49C189.273 182.723 189.719 181.993 190.23 181.308C192.003 178.887 194.342 176.937 197.041 175.627C197.856 175.237 198.699 174.911 199.565 174.652C199.875 174.547 200.196 174.474 200.521 174.437Z" fill="#263238"/>
<path d="M164.241 247.841C164.381 247.846 164.521 247.836 164.659 247.811L165.855 247.662L170.269 247.064L184.812 244.905L195.385 243.278H195.343C196.69 243.472 197.958 244.032 199.008 244.899C199.83 245.555 200.513 246.368 201.018 247.291C201.443 248.105 201.745 248.978 201.915 249.88C201.924 249.819 201.924 249.756 201.915 249.695C201.915 249.569 201.915 249.39 201.843 249.157C201.717 248.479 201.491 247.824 201.173 247.213C200.679 246.253 199.995 245.403 199.164 244.714C198.088 243.8 196.78 243.204 195.385 242.991H195.343L184.782 244.582L170.257 246.836L165.861 247.554L164.665 247.769C164.522 247.778 164.379 247.802 164.241 247.841Z" fill="#263238"/>
<path d="M166.669 269.818C166.769 269.801 166.866 269.769 166.956 269.722C167.23 269.623 167.496 269.503 167.751 269.363C168.698 268.859 169.543 268.184 170.245 267.372C171.283 266.161 172.056 264.745 172.511 263.216C173.075 261.345 173.224 259.373 172.948 257.439C172.633 255.498 171.807 253.676 170.556 252.159C169.553 250.924 168.31 249.907 166.902 249.169C165.964 248.667 164.956 248.31 163.912 248.11C163.547 248.032 163.248 248.032 163.051 248.003C162.951 247.989 162.851 247.989 162.752 248.003C164.171 248.239 165.543 248.706 166.812 249.384C168.171 250.14 169.368 251.156 170.334 252.374C171.531 253.856 172.32 255.624 172.625 257.505C172.891 259.384 172.754 261.298 172.224 263.12C171.794 264.617 171.061 266.009 170.071 267.21C169.398 268.022 168.588 268.71 167.679 269.244C167.045 269.62 166.657 269.782 166.669 269.818Z" fill="#263238"/>
<g opacity="0.2">
<path d="M189.638 210.998L185.129 244.672L190.84 243.392L192.61 228.699L189.638 210.998Z" fill="black"/>
</g>
<g opacity="0.3">
<path d="M97.4321 252.41C100.145 251.919 102.924 251.919 105.637 252.41C106.797 252.67 107.888 253.179 108.832 253.902C109.777 254.624 110.554 255.544 111.108 256.596C112.172 258.573 112.503 260.863 112.041 263.06C111.653 264.956 111.246 266.917 109.859 268.263C107.813 270.248 105.798 270.888 103.155 270.422L98.072 268.771L97.4321 252.41Z" fill="black"/>
</g>
<path d="M101.81 270.081C101.917 270.142 102.032 270.19 102.15 270.224C102.483 270.345 102.825 270.437 103.173 270.499C104.459 270.764 105.791 270.694 107.042 270.296C107.906 270.014 108.704 269.558 109.386 268.956C110.158 268.259 110.792 267.423 111.258 266.493C111.771 265.468 112.131 264.374 112.328 263.246C112.59 262.038 112.619 260.792 112.412 259.574C112.147 258.372 111.688 257.221 111.055 256.165C110.508 255.212 109.77 254.382 108.887 253.727C108.004 253.073 106.995 252.608 105.924 252.362C105.045 252.175 104.149 252.075 103.251 252.063C101.959 252.052 100.667 252.136 99.3876 252.314L98.3471 252.464C98.2242 252.471 98.1032 252.497 97.9883 252.541C98.1094 252.556 98.2319 252.556 98.3531 252.541L99.3996 252.458C100.677 252.329 101.961 252.281 103.245 252.314C104.125 252.341 105 252.453 105.858 252.649C106.834 252.885 107.756 253.308 108.573 253.893C110.301 255.089 111.563 257.284 112.083 259.652C112.282 260.828 112.256 262.031 112.005 263.198C111.82 264.296 111.475 265.362 110.983 266.361C110.538 267.263 109.93 268.074 109.189 268.753C108.539 269.339 107.779 269.788 106.952 270.075C105.74 270.483 104.447 270.59 103.185 270.386C102.3 270.23 101.821 270.051 101.81 270.081Z" fill="#263238"/>
<g opacity="0.3">
<path d="M163.499 248.038C165.891 248.696 168.433 249.438 170.077 251.303C171.75 253.366 172.725 255.906 172.864 258.557C173.002 261.209 172.297 263.837 170.849 266.062C170.098 267.287 169.09 268.333 167.894 269.13C166.666 269.749 165.268 269.944 163.918 269.686C160.33 269.088 157.268 266.194 156.204 262.689C155.681 260.848 155.549 258.917 155.816 257.021C156.083 255.126 156.742 253.306 157.752 251.68C158.721 250.227 161.831 248.565 163.493 248.038" fill="black"/>
</g>
<path d="M207.333 256.381C207.227 256.147 207.141 255.905 207.075 255.657C206.926 255.19 206.711 254.515 206.418 253.69C205.711 251.531 204.665 249.498 203.32 247.668C201.935 245.857 200.071 244.471 197.938 243.667C197.044 243.375 196.122 243.175 195.187 243.069C195.441 243.037 195.698 243.037 195.953 243.069C196.652 243.115 197.344 243.25 198.01 243.47C200.211 244.234 202.138 245.632 203.547 247.488C204.927 249.34 205.973 251.418 206.639 253.63C206.908 254.473 207.093 255.161 207.237 255.639C207.3 255.881 207.332 256.13 207.333 256.381Z" fill="#455A64"/>
<path d="M186.576 194.511C186.638 194.666 186.684 194.826 186.714 194.99C186.791 195.337 186.905 195.803 187.042 196.389C187.323 197.585 187.706 199.379 188.167 201.538C189.088 205.891 190.278 211.931 191.45 218.623C192.622 225.314 193.531 231.396 194.135 235.809C194.44 238.01 194.673 239.798 194.822 241.036C194.888 241.634 194.942 242.106 194.984 242.459C195.026 242.812 195.026 242.955 195.02 242.961C194.97 242.8 194.936 242.633 194.918 242.465C194.864 242.118 194.793 241.646 194.697 241.054C194.511 239.792 194.248 238.016 193.919 235.839C193.256 231.438 192.305 225.362 191.139 218.677C189.973 211.991 188.818 205.945 187.951 201.58C187.521 199.421 187.174 197.663 186.923 196.413C186.809 195.815 186.72 195.355 186.654 195.008C186.614 194.845 186.588 194.679 186.576 194.511Z" fill="#455A64"/>
<path d="M196.79 170.298C196.79 170.346 196.126 170.723 195.103 171.459C193.78 172.416 192.575 173.528 191.515 174.771C190.457 176.021 189.556 177.394 188.83 178.862C188.274 179.992 188.011 180.728 187.963 180.71C187.976 180.524 188.021 180.342 188.095 180.171C188.244 179.692 188.424 179.223 188.633 178.766C189.312 177.253 190.202 175.843 191.276 174.58C192.355 173.315 193.605 172.206 194.99 171.285C195.408 171.006 195.843 170.755 196.293 170.532C196.447 170.43 196.614 170.351 196.79 170.298Z" fill="#455A64"/>
<path d="M124.737 250.227C124.729 250.176 124.729 250.123 124.737 250.072C124.737 249.958 124.737 249.809 124.737 249.629C124.737 249.217 124.737 248.642 124.737 247.919C124.707 246.436 124.701 244.289 124.533 241.646C124.444 240.324 124.306 238.877 124.073 237.34C123.84 235.803 123.475 234.177 123.05 232.478C122.213 229.082 121.017 225.362 120.766 221.284C120.644 217.455 121.134 213.632 122.219 209.958C123.122 206.561 124.127 203.559 124.85 200.988C125.445 198.981 125.928 196.942 126.298 194.882C126.441 194.153 126.495 193.579 126.561 193.196C126.561 193.016 126.609 192.873 126.626 192.753C126.644 192.634 126.626 192.604 126.662 192.61C126.668 192.66 126.668 192.71 126.662 192.759C126.662 192.879 126.662 193.022 126.626 193.202C126.585 193.591 126.549 194.171 126.423 194.9C126.072 196.985 125.591 199.046 124.982 201.072C124.288 203.631 123.308 206.639 122.417 210.042C121.366 213.685 120.894 217.47 121.017 221.26C121.268 225.291 122.44 228.992 123.272 232.401C123.688 234.013 124.019 235.646 124.264 237.292C124.492 238.841 124.617 240.282 124.689 241.622C124.832 244.277 124.809 246.406 124.797 247.913C124.797 248.636 124.797 249.211 124.767 249.623V250.066C124.765 250.121 124.755 250.175 124.737 250.227Z" fill="#455A64"/>
<path d="M186.953 180.943L186.761 180.895L186.223 180.728C185.529 180.526 184.819 180.386 184.1 180.309C181.445 180.066 178.77 180.432 176.278 181.379C174.555 182.013 172.892 182.799 171.309 183.73C169.587 184.71 167.811 185.87 165.927 187.072C163.97 188.36 161.926 189.511 159.809 190.517C157.523 191.606 155.061 192.278 152.538 192.502C149.995 192.648 147.456 192.164 145.147 191.091C143.021 190.097 140.986 188.921 139.065 187.575C137.211 186.331 135.477 185.129 133.725 184.172C132.135 183.258 130.429 182.562 128.654 182.103C127.185 181.749 125.666 181.647 124.163 181.804C123.029 181.926 121.922 182.231 120.886 182.707C120.008 183.136 119.201 183.696 118.494 184.369C118.531 184.318 118.573 184.269 118.619 184.226C118.709 184.136 118.84 183.993 119.02 183.825C119.563 183.349 120.166 182.947 120.814 182.629C121.857 182.125 122.976 181.797 124.127 181.66C125.651 181.485 127.194 181.572 128.69 181.918C130.489 182.371 132.219 183.065 133.832 183.981C135.584 184.932 137.349 186.128 139.214 187.365C141.128 188.696 143.153 189.858 145.266 190.84C147.527 191.875 150.008 192.339 152.49 192.191C154.979 191.973 157.409 191.313 159.666 190.242C161.772 189.245 163.806 188.104 165.754 186.827C167.643 185.631 169.425 184.483 171.166 183.502C172.766 182.574 174.447 181.794 176.189 181.17C178.711 180.231 181.419 179.895 184.094 180.189C184.817 180.282 185.53 180.442 186.223 180.668L186.755 180.865C186.825 180.88 186.891 180.907 186.953 180.943Z" fill="#FAFAFA"/>
<path d="M209.808 187.3C209.63 187.544 209.43 187.772 209.21 187.981C208.97 188.244 208.712 188.489 208.439 188.717C208.095 189.036 207.734 189.336 207.357 189.614C206.905 189.961 206.433 190.282 205.945 190.577C205.391 190.924 204.818 191.241 204.229 191.527C202.874 192.173 201.455 192.675 199.995 193.022C198.528 193.345 197.031 193.513 195.528 193.525C194.873 193.522 194.218 193.484 193.567 193.411C193 193.361 192.437 193.277 191.88 193.16C191.36 193.076 190.911 192.927 190.511 192.825C190.167 192.737 189.83 192.627 189.5 192.496C189.212 192.407 188.933 192.289 188.669 192.143C188.669 192.078 189.865 192.58 191.922 192.939C192.474 193.043 193.031 193.115 193.591 193.154C194.189 193.232 194.846 193.22 195.528 193.238C197.007 193.208 198.479 193.034 199.923 192.717C201.363 192.376 202.766 191.891 204.109 191.27C204.707 190.959 205.305 190.672 205.82 190.355C206.306 190.073 206.777 189.766 207.231 189.434C208.899 188.221 209.754 187.252 209.808 187.3Z" fill="#FAFAFA"/>
<path d="M124.45 198.715C123.984 198.803 123.508 198.817 123.038 198.757C121.898 198.682 120.772 198.459 119.69 198.093C118.608 197.727 117.577 197.225 116.622 196.598C116.21 196.364 115.839 196.065 115.522 195.713C116.875 196.542 118.305 197.239 119.791 197.794C121.311 198.251 122.871 198.559 124.45 198.715Z" fill="#FAFAFA"/>
<path d="M187.874 202.453C187.196 201.958 186.48 201.518 185.733 201.137C183.634 200.216 181.347 199.806 179.059 199.941C176.153 199.983 172.762 200.749 169.049 201.735C165.335 202.722 161.275 203.942 156.897 204.761C154.769 205.175 152.612 205.423 150.445 205.503C148.425 205.567 146.404 205.471 144.399 205.216C141.012 204.77 137.668 204.046 134.401 203.051C131.608 202.226 129.383 201.448 127.823 200.91L126.058 200.282L125.604 200.109C125.502 200.067 125.448 200.043 125.454 200.037C125.509 200.046 125.563 200.06 125.616 200.079L126.082 200.222L127.876 200.82C129.425 201.323 131.656 202.064 134.454 202.865C137.719 203.822 141.055 204.522 144.429 204.958C146.413 205.198 148.412 205.286 150.409 205.222C152.561 205.135 154.704 204.887 156.82 204.48C161.173 203.661 165.227 202.435 168.953 201.49C172.678 200.545 176.093 199.774 179.029 199.756C181.349 199.645 183.66 200.103 185.763 201.089L186.271 201.359L186.702 201.634C186.929 201.767 187.145 201.919 187.347 202.088L187.724 202.399L187.874 202.453Z" fill="#FAFAFA"/>
<path d="M81.8482 269.537C81.8482 269.537 88.0973 270.457 90.4893 271.426C93.0847 272.473 96.2899 271.863 98.4667 270.452C99.7043 269.668 100.862 268.764 101.923 267.755L109.912 267.796C111.092 266.477 111.884 264.857 112.201 263.116C112.517 261.375 112.346 259.58 111.706 257.929C111.292 256.783 110.685 255.715 109.912 254.772C108.985 253.725 107.52 252.864 104.925 252.38L95.3929 254.234C95.3929 254.234 83.3074 254.03 78.4337 253.803C77.262 253.748 76.1035 254.069 75.1267 254.718C73.9845 255.478 72.6929 256.512 72.7945 257.152C72.8663 257.636 72.0769 260.74 74.4271 262.743C74.4271 262.743 72.3101 264.352 73.4045 265.865L73.9307 266.535C73.9307 266.535 72.4955 268.329 73.1952 269.118C73.8948 269.907 80.114 273.746 82.3805 272.909C84.6469 272.072 82.8349 269.955 81.8482 269.555" fill="#B78876"/>
<path d="M76.0656 259.532C76.3325 259.608 76.5926 259.706 76.843 259.825C77.3333 260.022 78.039 260.303 78.9419 260.614C79.3904 260.764 79.8868 260.925 80.419 261.075C80.9512 261.224 81.5373 261.362 82.1412 261.571C82.7982 261.765 83.3884 262.138 83.8456 262.648C84.0955 262.931 84.2659 263.276 84.3394 263.647C84.4129 264.017 84.3869 264.401 84.2642 264.759C84.1028 265.116 83.8214 265.406 83.4688 265.578C83.1367 265.729 82.7804 265.82 82.4163 265.847C81.7471 265.872 81.0771 265.821 80.419 265.697C79.3172 265.499 78.2376 265.192 77.1958 264.782C76.3048 264.448 75.5991 264.131 75.1147 263.915C74.8572 263.814 74.6091 263.69 74.3732 263.545C74.6415 263.615 74.9035 263.707 75.1566 263.82C75.6529 264.011 76.3526 264.298 77.2556 264.609C78.2968 264.986 79.3694 265.271 80.4609 265.458C81.0977 265.575 81.7457 265.619 82.3924 265.59C82.7235 265.566 83.0476 265.483 83.3492 265.345C83.6502 265.204 83.8886 264.957 84.019 264.651C84.1238 264.338 84.1447 264.004 84.0796 263.68C84.0145 263.357 83.8658 263.057 83.6482 262.809C83.2219 262.334 82.6739 261.985 82.0635 261.798C81.4655 261.589 80.8974 261.452 80.3592 261.284C79.821 261.117 79.3307 260.949 78.8822 260.788C77.9852 260.459 77.2795 260.148 76.8011 259.915C76.5457 259.808 76.2997 259.68 76.0656 259.532Z" fill="#AA6550"/>
<path d="M76.7234 255.005C76.9867 255.088 77.2444 255.188 77.4948 255.304C77.9852 255.507 78.6908 255.795 79.5818 256.111C80.4728 256.428 81.5433 256.775 82.7452 257.092C83.4117 257.21 84.042 257.48 84.5871 257.882C84.8749 258.132 85.0619 258.478 85.1133 258.856C85.16 259.237 85.0956 259.623 84.9279 259.969C84.7587 260.298 84.5231 260.588 84.2359 260.822C83.9488 261.056 83.6163 261.227 83.2595 261.326C82.6123 261.522 81.9281 261.563 81.2622 261.446C80.1704 261.208 79.1018 260.873 78.0689 260.447L75.946 259.664C75.6839 259.578 75.4298 259.47 75.1865 259.341C75.4574 259.395 75.7234 259.471 75.9819 259.568L78.1048 260.274C79.1349 260.668 80.1947 260.98 81.2742 261.206C81.9029 261.312 82.5476 261.271 83.1579 261.087C83.4798 260.995 83.7796 260.839 84.0388 260.627C84.298 260.415 84.511 260.152 84.6648 259.855C84.8272 259.569 84.8884 259.236 84.8385 258.91C84.7886 258.585 84.6305 258.286 84.3897 258.061C83.8779 257.684 83.2869 257.428 82.6615 257.313C81.4655 256.979 80.3772 256.614 79.4921 256.273C78.6071 255.932 77.9074 255.615 77.429 255.388C77.1824 255.283 76.9462 255.154 76.7234 255.005Z" fill="#AA6550"/>
<path d="M101.809 257.014L96.278 254.748C96.278 254.748 80.9273 247.189 80.6582 247.572C80.3891 247.955 79.5519 247.901 79.6954 249.797C79.839 251.692 88.791 255.687 89.0661 256.375C89.3412 257.062 88.791 260.333 92.0561 262.773C95.3212 265.213 97.7491 265.321 97.7491 265.321" fill="#B78876"/>
<path d="M97.767 265.297H97.6294C97.5011 265.288 97.3734 265.272 97.2467 265.249C96.7561 265.166 96.2738 265.04 95.8056 264.872C95.0619 264.608 94.3435 264.278 93.6587 263.885C92.7442 263.378 91.8948 262.762 91.1292 262.05C90.2117 261.147 89.5742 259.999 89.2933 258.743C89.1484 258.055 89.0525 257.357 89.0063 256.656C88.9949 256.573 88.979 256.491 88.9584 256.41C88.9224 256.35 88.8734 256.299 88.8149 256.261C88.6712 256.151 88.5214 256.049 88.3664 255.956C88.0555 255.765 87.7266 255.579 87.3917 255.388C86.0641 254.646 84.6469 253.893 83.2057 253.032C82.4941 252.601 81.7765 252.147 81.0828 251.632C80.7286 251.371 80.3966 251.081 80.0901 250.765C79.9282 250.6 79.7876 250.415 79.6715 250.215C79.6148 250.106 79.5745 249.989 79.5519 249.868C79.5432 249.753 79.5432 249.637 79.5519 249.521C79.5095 249.058 79.603 248.593 79.821 248.182C79.9494 247.984 80.1212 247.819 80.3233 247.698C80.4034 247.648 80.4759 247.588 80.5386 247.518C80.5386 247.518 80.5386 247.518 80.5924 247.464C80.6262 247.442 80.6656 247.43 80.7061 247.428H80.8137L80.9811 247.47C81.8183 247.751 82.5778 248.104 83.3731 248.439C84.8921 249.115 86.3631 249.797 87.7206 250.454C90.4774 251.764 92.9471 252.972 95.0162 254.001C95.5305 254.252 96.0208 254.509 96.4932 254.718L97.8447 255.286L100.015 256.195L101.379 256.793L101.732 256.955L101.845 257.014L101.72 256.979L101.361 256.847L99.9736 256.303L97.7849 255.43L96.4215 254.886C95.9431 254.676 95.4587 254.425 94.9325 254.174L87.6189 250.682C86.2376 250.036 84.7844 249.354 83.2655 248.684C82.512 248.355 81.7346 247.997 80.9393 247.733L80.7958 247.698H80.73C80.73 247.698 80.73 247.662 80.73 247.638C80.9034 247.757 80.7718 247.674 80.8077 247.704C80.7282 247.796 80.6355 247.877 80.5326 247.943C80.3624 248.045 80.2173 248.184 80.1081 248.349C79.9223 248.719 79.8416 249.133 79.8748 249.545C79.8624 249.752 79.9036 249.958 79.9944 250.143C80.0987 250.322 80.2253 250.487 80.3712 250.634C80.6674 250.938 80.9873 251.218 81.328 251.471C82.0097 251.979 82.7213 252.434 83.4269 252.858C84.8442 253.719 86.2555 254.479 87.6129 255.25C87.9478 255.442 88.2767 255.627 88.5937 255.848C88.7491 255.95 88.9106 256.046 89.0601 256.165C89.1549 256.229 89.2296 256.318 89.2754 256.422C89.3055 256.516 89.3256 256.612 89.3352 256.709C89.3782 257.406 89.4681 258.1 89.6043 258.785C89.8725 260.004 90.4823 261.122 91.3624 262.008C92.1102 262.717 92.9392 263.335 93.8322 263.85C94.5062 264.247 95.2123 264.587 95.9431 264.866C96.404 265.043 96.8778 265.185 97.3603 265.291C97.5218 265.327 97.6534 265.345 97.7371 265.357L97.767 265.297Z" fill="#AA6550"/>
<path d="M80.6523 265.661C80.8594 265.695 81.0608 265.757 81.2503 265.847C81.7696 266.071 82.2548 266.367 82.6914 266.726C82.9977 266.974 83.2764 267.255 83.5227 267.563C83.6759 267.744 83.7917 267.953 83.8636 268.179C83.9354 268.405 83.9618 268.643 83.9413 268.879C83.8851 269.141 83.7568 269.382 83.5708 269.576C83.3849 269.769 83.1487 269.907 82.8888 269.973C82.3503 270.107 81.7841 270.078 81.2622 269.889C79.499 269.326 77.793 268.598 76.1673 267.713C75.6777 267.446 75.2044 267.151 74.75 266.828C74.5762 266.719 74.4139 266.593 74.2656 266.451C74.4544 266.53 74.6348 266.628 74.8038 266.744C75.1447 266.947 75.641 267.228 76.2629 267.551C77.8959 268.374 79.5891 269.072 81.328 269.638C81.7995 269.809 82.3103 269.84 82.7991 269.728C83.0169 269.678 83.2164 269.568 83.375 269.411C83.5335 269.253 83.6447 269.054 83.6961 268.837C83.7137 268.631 83.6906 268.423 83.628 268.226C83.5654 268.029 83.4646 267.847 83.3313 267.689C83.1037 267.387 82.8451 267.111 82.5599 266.863C81.9771 266.384 81.3362 265.98 80.6523 265.661Z" fill="#AA6550"/>
<path d="M168.594 250.395L158.739 250.598C158.739 250.598 143.968 245.258 140.931 245.772C138.192 246.226 128.175 252.882 126.214 254.204C125.993 254.345 125.825 254.555 125.735 254.802C125.542 255.323 125.559 255.898 125.782 256.407C126.005 256.916 126.417 257.318 126.931 257.529L127.141 257.618L127.051 257.917C126.932 258.304 126.88 258.709 126.896 259.113C126.92 259.419 127.041 259.71 127.241 259.943C127.441 260.175 127.71 260.338 128.009 260.408C128.308 260.478 128.621 260.451 128.903 260.331C129.186 260.211 129.423 260.005 129.581 259.741L129.204 260.411C129.049 260.684 128.977 260.995 128.995 261.308L129.03 261.906C129.048 262.237 129.166 262.554 129.367 262.817C129.569 263.08 129.846 263.275 130.161 263.377C130.461 263.475 130.783 263.484 131.089 263.403C131.394 263.323 131.67 263.156 131.883 262.923C133.151 261.529 135.895 258.737 137.749 258.42C139.763 258.178 141.791 258.076 143.819 258.115C144.231 258.117 144.634 258.244 144.973 258.479C145.312 258.714 145.573 259.045 145.721 259.43C144.62 259.508 136.942 263.509 134.227 264.944C133.807 265.154 133.443 265.463 133.168 265.844C132.893 266.225 132.715 266.667 132.648 267.133C132.547 267.982 132.977 268.873 134.658 268.478C138.246 267.635 144.764 264.651 144.764 264.651C144.764 264.651 148.119 263.694 150.289 265.249C153.339 267.402 154.738 268.191 157.364 267.324C158.957 266.79 160.485 266.08 161.92 265.207L170.855 266.074C170.855 266.074 176.32 257.14 168.594 250.395Z" fill="#B78876"/>
<path d="M145.78 253.092C145.78 253.151 144.728 252.816 143.006 252.709C140.752 252.557 138.494 252.939 136.416 253.825C134.338 254.71 132.498 256.073 131.046 257.804C129.933 259.125 129.455 260.106 129.407 260.076C129.486 259.834 129.597 259.602 129.736 259.388C130.076 258.788 130.464 258.216 130.896 257.678C132.331 255.884 134.187 254.472 136.301 253.571C138.414 252.669 140.717 252.305 143.006 252.511C143.694 252.569 144.376 252.685 145.045 252.858C145.297 252.913 145.543 252.991 145.78 253.092Z" fill="#AA6550"/>
<path d="M144.214 249.504C143.274 249.221 142.305 249.053 141.325 249.001C138.95 248.99 136.621 249.649 134.604 250.903C132.606 252.187 130.784 253.727 129.186 255.484L127.703 257.062C127.531 257.265 127.343 257.453 127.141 257.624C127.278 257.395 127.44 257.183 127.625 256.99C127.948 256.596 128.432 256.034 129.042 255.352C130.614 253.538 132.439 251.959 134.46 250.664C136.517 249.379 138.908 248.732 141.331 248.804C142.062 248.836 142.784 248.969 143.478 249.199C143.666 249.256 143.85 249.326 144.028 249.408C144.095 249.429 144.158 249.461 144.214 249.504Z" fill="#AA6550"/>
<path d="M103.113 107.987C99.8702 100.448 94.2023 94.2085 87.009 90.2581C79.8158 86.3077 71.5092 84.8729 63.4075 86.1814C55.3059 87.4899 47.8734 91.4667 42.2894 97.4807C36.7055 103.495 33.2901 111.201 32.5852 119.378C31.8804 127.554 33.9265 135.732 38.3988 142.612C42.8711 149.493 49.5134 154.684 57.2715 157.359C65.0297 160.035 73.4593 160.043 81.2225 157.382C88.9857 154.721 95.6378 149.543 100.123 142.671L114.356 142.438L105.075 131.261C106.975 123.496 106.286 115.324 103.113 107.987Z" fill="#FAFAFA"/>
<path d="M54.6752 88.6475C54.4698 88.7137 54.2699 88.7957 54.0772 88.8927L52.3788 89.7C52.0021 89.8854 51.5775 90.0648 51.129 90.298L49.6938 91.1651L48.0254 92.1877L46.2314 93.5392C43.1828 95.8822 40.5403 98.7106 38.4096 101.911C35.5535 106.133 33.5879 110.892 32.6329 115.898C31.5329 121.998 31.9435 128.275 33.8289 134.179C34.3649 135.784 35.0041 137.352 35.7425 138.874C36.1372 139.639 36.4661 140.446 36.9385 141.188L38.3318 143.43C40.3609 146.469 42.8273 149.191 45.6513 151.509C48.6346 153.915 51.9499 155.877 55.4944 157.334C59.2321 158.784 63.1717 159.648 67.1734 159.893C71.3229 160.174 75.4893 159.718 79.4802 158.548C80.4981 158.28 81.497 157.944 82.4702 157.543C83.4748 157.201 84.4591 156.801 85.4183 156.347C87.3595 155.416 89.218 154.322 90.9738 153.076C94.7541 150.383 97.9989 147.008 100.542 143.125L100.207 143.311L114.164 142.958H114.989L114.475 142.312L105.505 131.094L105.583 131.434C106.964 125.762 106.993 119.844 105.667 114.158C105.064 111.507 104.142 108.939 102.922 106.51C102.38 105.32 101.75 104.173 101.038 103.077L100.021 101.451C99.6687 100.924 99.2501 100.446 98.8793 99.9437C93.5157 92.9792 85.8519 88.147 77.2556 86.3093C74.0802 85.6013 70.8224 85.3337 67.574 85.514L65.5169 85.6456L63.6452 85.9446L61.9289 86.2256C61.3967 86.3452 60.8944 86.5007 60.416 86.6263C59.4651 86.9014 58.622 87.0808 57.9044 87.3499L56.1104 88.0435L55.016 88.504C54.892 88.5451 54.7735 88.6013 54.6632 88.6714C54.7949 88.6521 54.9235 88.6159 55.0459 88.5638L56.1462 88.193L57.9402 87.5592C58.6519 87.32 59.507 87.1525 60.4578 86.9014C67.396 85.2381 74.6677 85.6227 81.3917 88.0088C88.1156 90.3948 94.0033 94.6798 98.3411 100.344C98.7059 100.841 99.1125 101.313 99.4534 101.827L100.446 103.43C101.142 104.508 101.753 105.637 102.276 106.809C103.465 109.195 104.361 111.717 104.943 114.32C106.221 119.894 106.174 125.69 104.805 131.243L104.758 131.428L104.883 131.584C107.778 135.208 110.768 138.953 113.853 142.82L114.164 142.151L100.201 142.485H99.9856L99.86 142.671C96.2053 148.245 91.0954 152.714 85.0835 155.594C84.1442 156.047 83.1799 156.446 82.1951 156.79C81.24 157.183 80.259 157.511 79.2589 157.77C75.3539 158.907 71.2789 159.347 67.2212 159.068C63.3072 158.828 59.4531 157.989 55.7934 156.58C52.314 155.154 49.0591 153.233 46.1297 150.875C43.3644 148.609 40.9467 145.95 38.9537 142.982C38.4873 142.246 38.0328 141.517 37.5783 140.793C37.1239 140.07 36.8009 139.274 36.3823 138.527C35.6502 137.035 35.017 135.497 34.4867 133.922C32.7479 128.642 32.2341 123.036 32.9843 117.528C33.7344 112.02 35.7288 106.755 38.8162 102.132C40.8926 98.9474 43.4715 96.1201 46.4527 93.7604L48.1869 92.391L49.8194 91.3445L51.2247 90.4415C51.6672 90.1904 52.0858 89.999 52.4207 89.8076L54.0831 88.9405C54.2889 88.861 54.4871 88.7629 54.6752 88.6475Z" fill="#263238"/>
<path d="M79.7939 141.393L81.9228 141.389C83.1117 141.387 84.0737 140.421 84.0714 139.232L84.009 106.713C84.0067 105.524 83.041 104.562 81.8521 104.564L79.7232 104.568C78.5342 104.571 77.5722 105.536 77.5745 106.725L77.637 139.244C77.6392 140.433 78.6049 141.395 79.7939 141.393Z" fill="#E0E0E0"/>
<path d="M69.2571 141.415L71.386 141.411C72.5749 141.408 73.5369 140.443 73.5346 139.254L73.4722 106.734C73.4699 105.546 72.5042 104.584 71.3153 104.586L69.1864 104.59C67.9974 104.592 67.0354 105.558 67.0377 106.747L67.1002 139.266C67.1024 140.455 68.0681 141.417 69.2571 141.415Z" fill="#E0E0E0"/>
<path d="M57.3329 141.434L59.4618 141.43C60.6507 141.427 61.6127 140.462 61.6104 139.273L61.548 106.753C61.5457 105.564 60.58 104.602 59.3911 104.605L57.2622 104.609C56.0732 104.611 55.1112 105.577 55.1135 106.766L55.176 139.285C55.1782 140.474 56.1439 141.436 57.3329 141.434Z" fill="#E0E0E0"/>
<path d="M80.7659 141.391C80.4962 141.356 80.2287 141.306 79.9646 141.242C79.2106 141.03 78.5678 140.535 78.1706 139.86C77.8829 139.384 77.7299 138.838 77.7281 138.282C77.7281 137.654 77.7281 136.978 77.7281 136.248C77.7281 134.783 77.7281 133.127 77.7281 131.291C77.7281 127.613 77.7281 123.242 77.7281 118.398C77.7281 115.97 77.7281 113.423 77.7281 110.78V108.782C77.681 108.126 77.7233 107.466 77.8536 106.821C78.0666 106.207 78.4695 105.678 79.0037 105.309C79.538 104.94 80.176 104.75 80.825 104.768C81.4741 104.786 82.1006 105.011 82.6136 105.409C83.1266 105.807 83.4995 106.358 83.6782 106.982C83.7713 107.636 83.8033 108.296 83.7738 108.956C83.7738 109.625 83.7738 110.295 83.7738 110.953C83.7738 113.596 83.7738 116.144 83.7738 118.571C83.7738 123.421 83.8217 127.787 83.8396 131.47C83.8396 133.3 83.8396 134.963 83.8815 136.422C83.8815 137.151 83.8815 137.839 83.8815 138.449C83.8563 139.006 83.6761 139.544 83.3612 140.004C82.9216 140.649 82.2558 141.106 81.4955 141.283C80.9692 141.397 80.6822 141.367 80.6822 141.391C80.959 141.427 81.2399 141.417 81.5134 141.361C82.311 141.211 83.0188 140.757 83.4868 140.093C83.8347 139.616 84.0419 139.05 84.0848 138.461C84.0848 137.827 84.0848 137.157 84.0848 136.422C84.0848 134.963 84.0848 133.3 84.0848 131.47C84.0848 127.787 84.0848 123.421 84.0848 118.571C84.0848 116.144 84.0848 113.596 84.0848 110.953V107.963C84.0979 107.607 84.0637 107.251 83.9831 106.904C83.802 106.185 83.386 105.547 82.8011 105.091C82.2161 104.635 81.4957 104.387 80.7539 104.387C80.0136 104.354 79.283 104.564 78.6729 104.985C78.0703 105.41 77.6247 106.021 77.4051 106.725C77.3021 107.07 77.2517 107.429 77.2556 107.79V108.8C77.2556 109.47 77.2556 110.14 77.2556 110.797C77.2556 113.441 77.2556 115.988 77.2855 118.416C77.2855 123.26 77.3334 127.631 77.3513 131.315C77.3513 133.145 77.3812 134.801 77.3872 136.266C77.3872 136.996 77.3872 137.672 77.3872 138.299C77.3948 138.889 77.5667 139.465 77.8835 139.962C78.3101 140.654 78.9941 141.149 79.7852 141.337C80.1048 141.423 80.4388 141.441 80.7659 141.391Z" fill="#263238"/>
<path d="M70.2292 141.409C69.9578 141.375 69.6883 141.327 69.4219 141.266C68.7747 141.079 68.2064 140.686 67.8036 140.146C67.4009 139.606 67.1858 138.949 67.1913 138.276C67.1913 137.648 67.1913 136.972 67.1913 136.242C67.1913 134.783 67.1913 133.121 67.1913 131.291C67.1913 127.607 67.1913 123.242 67.1913 118.392V108.8C67.1411 108.146 67.1834 107.487 67.3169 106.845C67.5261 106.228 67.9272 105.694 68.4616 105.322C68.9959 104.95 69.6354 104.758 70.2865 104.776C70.9375 104.793 71.5659 105.018 72.0796 105.419C72.5933 105.819 72.9654 106.373 73.1414 107C73.2353 107.653 73.2654 108.314 73.2311 108.974C73.2311 109.649 73.2311 110.313 73.2311 110.977C73.2311 113.614 73.2311 116.161 73.2311 118.589C73.2311 123.439 73.279 127.811 73.2969 131.488C73.2969 133.324 73.2969 134.981 73.3328 136.446C73.3328 137.169 73.3328 137.857 73.3328 138.473C73.3076 139.029 73.1274 139.568 72.8125 140.028C72.3678 140.67 71.7012 141.126 70.9408 141.307C70.4205 141.415 70.1275 141.385 70.1335 141.409C70.4067 141.454 70.6855 141.454 70.9587 141.409C71.7573 141.254 72.4658 140.798 72.9381 140.135C73.2878 139.661 73.4953 139.097 73.5361 138.509C73.566 137.869 73.5361 137.199 73.5361 136.47C73.5361 135.004 73.5361 133.342 73.5361 131.512C73.5361 127.834 73.5361 123.463 73.5361 118.613C73.5361 116.185 73.5361 113.638 73.5361 110.995V108.997C73.5361 108.663 73.5361 108.328 73.5361 107.987C73.5519 107.631 73.5177 107.275 73.4344 106.928C73.2545 106.21 72.8397 105.571 72.2557 105.115C71.6718 104.659 70.9522 104.411 70.2112 104.411C69.4721 104.374 68.7417 104.584 68.1346 105.007C67.5275 105.43 67.0779 106.043 66.8564 106.749C66.756 107.095 66.7076 107.453 66.7129 107.813V108.824C66.7129 109.5 66.7129 110.164 66.7129 110.827C66.7129 113.465 66.7129 116.012 66.7129 118.44C66.7129 123.29 66.7608 127.655 66.7847 131.339C66.7847 133.169 66.7847 134.831 66.8206 136.29C66.8206 137.02 66.8206 137.701 66.8206 138.323C66.8264 138.912 66.9962 139.488 67.3109 139.986C67.7408 140.678 68.4263 141.172 69.2185 141.361C69.5473 141.455 69.8931 141.471 70.2292 141.409Z" fill="#263238"/>
<path d="M58.305 141.433C58.0333 141.399 57.7638 141.349 57.4977 141.283C56.8555 141.098 56.2908 140.709 55.8885 140.176C55.4862 139.642 55.2682 138.992 55.2672 138.323C55.2672 137.695 55.2672 137.02 55.2672 136.29C55.2672 134.825 55.2672 133.169 55.2672 131.339C55.2672 127.655 55.2672 123.29 55.2672 118.44V108.836C55.2169 108.182 55.2592 107.523 55.3928 106.881C55.6019 106.264 56.0031 105.73 56.5374 105.358C57.0718 104.986 57.7113 104.794 58.3623 104.811C59.0134 104.829 59.6417 105.054 60.1555 105.454C60.6692 105.855 61.0413 106.409 61.2173 107.036C61.3112 107.689 61.3412 108.35 61.307 109.009C61.307 109.679 61.307 110.349 61.307 111.007C61.307 113.65 61.307 116.197 61.307 118.625C61.307 123.475 61.3548 127.846 61.3728 131.524C61.3728 133.354 61.3728 135.016 61.4086 136.482C61.4086 137.205 61.4086 137.893 61.4086 138.503C61.3835 139.059 61.2033 139.598 60.8884 140.058C60.4451 140.703 59.7782 141.161 59.0166 141.343C58.4964 141.451 58.2034 141.421 58.2093 141.445C58.4826 141.49 58.7613 141.49 59.0346 141.445C59.7222 141.31 60.3462 140.952 60.8099 140.427C61.2737 139.901 61.5513 139.238 61.6 138.539C61.6 137.905 61.6 137.235 61.6 136.505C61.6 135.04 61.6 133.378 61.6 131.548C61.6 127.864 61.6 123.499 61.6 118.649C61.6 116.221 61.6 113.674 61.6 111.031V108.041C61.6099 107.685 61.5757 107.329 61.4983 106.982C61.3163 106.263 60.9 105.626 60.3153 105.17C59.7305 104.714 59.0106 104.466 58.2691 104.465C57.53 104.428 56.7996 104.638 56.1925 105.061C55.5854 105.484 55.1359 106.097 54.9144 106.803C54.8168 107.149 54.7685 107.507 54.7708 107.867V108.836C54.7708 109.512 54.7708 110.176 54.7708 110.833C54.7708 113.476 54.7708 116.024 54.7708 118.452C54.7708 123.302 54.8187 127.667 54.8426 131.351C54.8426 133.181 54.8426 134.843 54.8785 136.302C54.8785 137.032 54.8785 137.707 54.8785 138.335C54.8843 138.924 55.0541 139.5 55.3688 139.998C55.7987 140.69 56.4842 141.184 57.2765 141.373C57.6099 141.473 57.9622 141.494 58.305 141.433Z" fill="#263238"/>
<path d="M74.7859 111.826C74.7882 112.72 74.5253 113.595 74.0302 114.34C73.5352 115.085 72.8303 115.667 72.0047 116.011C71.1792 116.355 70.2702 116.446 69.3926 116.274C68.515 116.101 67.7083 115.672 67.0746 115.041C66.4409 114.41 66.0087 113.605 65.8326 112.728C65.6565 111.851 65.7445 110.942 66.0854 110.115C66.4263 109.288 67.0048 108.581 67.7478 108.083C68.4907 107.585 69.3646 107.318 70.259 107.317C71.457 107.315 72.6066 107.789 73.4554 108.635C74.3042 109.48 74.7827 110.628 74.7859 111.826Z" fill="#333333"/>
<path d="M62.8797 123.015C62.8809 123.909 62.6169 124.783 62.1211 125.527C61.6253 126.271 60.92 126.852 60.0944 127.195C59.2688 127.538 58.3599 127.629 57.4827 127.456C56.6055 127.282 55.7994 126.853 55.1663 126.222C54.5332 125.59 54.1016 124.785 53.926 123.908C53.7504 123.032 53.8387 122.123 54.1798 121.296C54.5209 120.469 55.0994 119.763 55.8422 119.265C56.585 118.767 57.4587 118.501 58.3528 118.5C58.9465 118.499 59.5346 118.615 60.0834 118.842C60.6322 119.068 61.131 119.4 61.5513 119.82C61.9717 120.239 62.3054 120.737 62.5333 121.285C62.7612 121.833 62.8789 122.421 62.8797 123.015Z" fill="#333333"/>
<path d="M84.8423 131.467C85.7598 129.145 84.6212 126.519 82.299 125.601C79.9769 124.684 77.3507 125.822 76.4332 128.144C75.5156 130.467 76.6543 133.093 78.9764 134.01C81.2985 134.928 83.9248 133.789 84.8423 131.467Z" fill="#333333"/>
<path d="M47.6487 272.879H137.845L126.208 209.575C126.008 208.487 125.433 207.504 124.583 206.796C123.733 206.088 122.662 205.7 121.555 205.7H40.5085C39.8118 205.7 39.1236 205.854 38.4931 206.15C37.8627 206.447 37.3056 206.88 36.8617 207.417C36.4178 207.954 36.098 208.582 35.9252 209.257C35.7524 209.932 35.7308 210.637 35.8621 211.321L47.6487 272.879Z" fill="#455A64"/>
<path d="M137.845 272.879H172.057L171.919 272.778C168.866 270.493 165.182 269.208 161.37 269.1L136.906 268.382L137.845 272.879Z" fill="#455A64"/>
<path d="M116.179 205.784C116.179 205.784 116.431 205.742 116.909 205.736C117.606 205.745 118.292 205.915 118.912 206.232C119.89 206.736 120.716 207.491 121.304 208.421C122.05 209.679 122.551 211.067 122.781 212.511C123.074 214.114 123.332 215.89 123.654 217.786C123.977 219.681 124.324 221.708 124.725 223.837C125.514 228.089 126.441 232.754 127.458 237.645C129.491 247.422 131.375 256.261 132.612 262.683C133.21 265.895 133.707 268.496 134.036 270.296C134.191 271.181 134.317 271.875 134.412 272.371C134.454 272.592 134.49 272.766 134.514 272.909C134.525 272.97 134.541 273.03 134.562 273.089C134.573 273.027 134.573 272.965 134.562 272.903C134.562 272.76 134.52 272.58 134.49 272.359C134.412 271.857 134.311 271.163 134.173 270.278C133.892 268.484 133.45 265.859 132.858 262.642C131.662 256.201 129.832 247.351 127.799 237.573C126.788 232.688 125.843 228.005 125.042 223.778C124.635 221.655 124.276 219.633 123.941 217.738C123.607 215.842 123.343 214.078 123.027 212.463C122.777 210.996 122.252 209.59 121.478 208.319C120.857 207.371 119.991 206.609 118.972 206.113C118.332 205.797 117.623 205.645 116.909 205.67C116.662 205.675 116.416 205.713 116.179 205.784Z" fill="#263238"/>
<path d="M85.5359 240.949C87.2383 239.247 87.2383 236.486 85.5359 234.784C83.8334 233.081 81.0732 233.081 79.3707 234.784C77.6683 236.486 77.6683 239.247 79.3707 240.949C81.0732 242.651 83.8334 242.651 85.5359 240.949Z" fill="#F5F5F5"/>
<path d="M284.774 272.82C284.774 272.903 226.445 272.975 154.511 272.975C82.5778 272.975 24.2369 272.903 24.2369 272.82C24.2369 272.736 82.524 272.688 154.511 272.688C226.499 272.688 284.774 272.736 284.774 272.82Z" fill="#263238"/>
</svg>
